<?xml version="1.0" encoding="UTF-8"?>
<svg width="16px" height="16px" viewBox="0 0 16 16" version="1.1" xmlns="http://www.w3.org/2000/svg" xmlns:xlink="http://www.w3.org/1999/xlink">
    <!-- Generator: Sketch 42 (36781) - http://www.bohemiancoding.com/sketch -->
    <title>icon/call</title>
    <desc>Created with Sketch.</desc>
    <defs>
        <linearGradient x1="97.5013733%" y1="100%" x2="8.71859091%" y2="34.6101692%" id="linearGradient-1">
            <stop stop-color="#50E3C2" offset="0%"></stop>
            <stop stop-color="#00A1E0" offset="100%"></stop>
        </linearGradient>
    </defs>
    <g id="Ready" stroke="none" stroke-width="1" fill="none" fill-rule="evenodd" opacity="0.750566123">
        <g id="Contact-Success" transform="translate(-716.000000, -867.000000)" fill="url(#linearGradient-1)">
            <g id="Group-2" transform="translate(287.000000, 211.000000)">
                <g id="icon/call" transform="translate(428.800000, 656.000000)">
                    <path d="M15.3967213,11.7770492 L13.7704918,10.4655738 C13.2196721,10.0196721 12.4327869,9.99344262 11.8557377,10.4131148 L10.3081967,11.5409836 C10.0983607,11.6983607 9.80983607,11.6721311 9.62622951,11.4885246 L7.08196721,9.18032787 L4.74754098,6.60983607 C4.56393443,6.42622951 4.53770492,6.13770492 4.69508197,5.92786885 L5.82295082,4.38032787 C6.24262295,3.80327869 6.21639344,3.01639344 5.7704918,2.46557377 L4.45901639,0.839344262 C3.88196721,0.104918033 2.78032787,0.0524590164 2.12459016,0.708196721 L0.708196721,2.12459016 C0.393442623,2.43934426 0.236065574,2.8852459 0.236065574,3.30491803 C0.419672131,6.63606557 1.94098361,9.80983607 4.1704918,12.0393443 C6.4,14.2688525 9.54754098,15.7901639 12.904918,15.9737705 C13.3508197,16 13.7704918,15.8163934 14.0852459,15.5016393 L15.5016393,14.0852459 C16.2098361,13.4557377 16.1311475,12.3540984 15.3967213,11.7770492 L15.3967213,11.7770492 Z" id="Shape"></path>
                </g>
            </g>
        </g>
    </g>
</svg>