<?xml version="1.0" encoding="UTF-8"?>
<svg width="17px" height="13px" viewBox="0 0 17 13" version="1.1" xmlns="http://www.w3.org/2000/svg" xmlns:xlink="http://www.w3.org/1999/xlink">
    <!-- Generator: Sketch 42 (36781) - http://www.bohemiancoding.com/sketch -->
    <title>icon/email</title>
    <desc>Created with Sketch.</desc>
    <defs>
        <linearGradient x1="97.5013733%" y1="100%" x2="8.71859091%" y2="34.6101692%" id="linearGradient-1">
            <stop stop-color="#50E3C2" offset="0%"></stop>
            <stop stop-color="#00A1E0" offset="100%"></stop>
        </linearGradient>
    </defs>
    <g id="Ready" stroke="none" stroke-width="1" fill="none" fill-rule="evenodd" opacity="0.750566123">
        <g id="Contact-Success" transform="translate(-429.000000, -867.000000)" fill="url(#linearGradient-1)">
            <g id="Group-2" transform="translate(287.000000, 211.000000)">
                <g id="icon/email" transform="translate(142.400000, 656.000000)">
                    <path d="M7.52786885,7.75919732 C7.73770492,7.94648829 8.02622951,7.94648829 8.23606557,7.75919732 L15.6590164,0.74916388 C15.7901639,0.481605351 15.7639344,0.0535117057 15.2393443,0.0535117057 L0.550819672,0.0802675585 C0.157377049,0.0802675585 -0.157377049,0.454849498 0.131147541,0.775919732 L7.52786885,7.75919732 Z M15.7377049,3.7458194 C15.7377049,3.39799331 15.3180328,3.21070234 15.0819672,3.45150502 L9.31147541,8.909699 C8.91803279,9.28428094 8.41967213,9.47157191 7.89508197,9.47157191 C7.3704918,9.47157191 6.87213115,9.28428094 6.47868852,8.909699 L0.681967213,3.45150502 C0.419672131,3.21070234 0.0262295082,3.39799331 0.0262295082,3.7458194 L0.0262295082,10.7023411 C0.0262295082,11.5852843 0.73442623,12.3076923 1.6,12.3076923 L14.1901639,12.3076923 C15.0557377,12.3076923 15.7639344,11.5852843 15.7639344,10.7023411 C15.7377049,10.7023411 15.7377049,5.88628763 15.7377049,3.7458194 Z" id="Shape"></path>
                </g>
            </g>
        </g>
    </g>
</svg>