<?xml version="1.0" encoding="UTF-8"?>
<svg width="62px" height="62px" viewBox="0 0 62 62" version="1.1" xmlns="http://www.w3.org/2000/svg" xmlns:xlink="http://www.w3.org/1999/xlink">
    <!-- Generator: Sketch 42 (36781) - http://www.bohemiancoding.com/sketch -->
    <title>product-icon/integrations</title>
    <desc>Created with Sketch.</desc>
    <defs></defs>
    <g id="Symbols" stroke="none" stroke-width="1" fill="none" fill-rule="evenodd">
        <g id="product-icon/integrations">
            <ellipse id="Oval-Copy" fill="#F07CAC" cx="30.6044376" cy="30.7228916" rx="30.6044376" ry="30.7228916"></ellipse>
            <path d="M38.5198932,20.082 C36.9988932,18.483 35.2048932,17.235 32.7088932,16.884 L32.7088932,12.945 L28.9258932,12.945 L28.9258932,16.962 C25.2598932,17.703 22.9978932,20.355 22.9978932,24.177 C22.9978932,31.197 33.2938932,31.119 33.2938932,35.136 C33.2938932,36.93 32.3188932,37.827 30.1348932,37.827 C28.2628932,37.827 26.5468932,37.047 24.5578932,35.565 L22.0618932,39.426 C23.8948932,41.103 26.6248932,42.117 28.9258932,42.39 L28.9258932,46.29 L32.7088932,46.29 L32.7088932,42.234 C36.7258932,41.376 38.7928932,38.49 38.7928932,34.746 C38.7928932,27.297 28.4968932,27.609 28.4968932,23.904 C28.4968932,22.149 29.5108932,21.408 31.3828932,21.408 C33.0208932,21.408 34.2298932,22.071 35.6338932,23.358 L38.5198932,20.082 Z" id="$" fill="#FFFFFF"></path>
        </g>
    </g>
</svg>