<?xml version="1.0" encoding="UTF-8"?>
<svg width="62px" height="62px" viewBox="0 0 62 62" version="1.1" xmlns="http://www.w3.org/2000/svg" xmlns:xlink="http://www.w3.org/1999/xlink">
    <!-- Generator: Sketch 42 (36781) - http://www.bohemiancoding.com/sketch -->
    <title>product-icon/reporting</title>
    <desc>Created with Sketch.</desc>
    <defs></defs>
    <g id="Symbols" stroke="none" stroke-width="1" fill="none" fill-rule="evenodd">
        <g id="product-icon/reporting">
            <ellipse id="Oval-Copy-2" fill="#FA895D" cx="30.6044376" cy="30.7228916" rx="30.6044376" ry="30.7228916"></ellipse>
            <g id="feed" transform="translate(16.000000, 19.000000)" fill="#FFFFFF">
                <path d="M15.4169855,23.3493976 C15.2180566,23.3493976 14.9693956,23.299718 14.7207345,23.1506793 C14.3228768,22.951961 14.0244836,22.5048449 13.9250191,22.0577288 L10.0459067,6.55770315 L6.81331293,13.959959 C6.61438409,14.5561138 6.06732976,14.9038708 5.47054323,14.9038708 L0.994644223,14.9038708 C0.447589901,14.9038708 0,14.4567547 0,13.9102794 L0,12.916688 C0,12.3702128 0.447589901,11.9230966 0.994644223,11.9230966 L4.47589901,11.9230966 L9.05126243,1.39102794 C9.29992349,0.794873109 9.89671002,0.447116124 10.5432288,0.496795693 C11.1897475,0.546475263 11.7368018,0.993591387 11.8859985,1.63942579 L15.8148432,17.3381697 L20.9869931,5.86218918 C21.2356542,5.26603435 21.8324407,4.91827736 22.4789594,4.96795693 C23.0260138,5.0176365 23.5233359,5.41507306 23.7719969,5.96154832 L26.3580719,11.9230966 L30.8339709,11.9230966 C31.3810252,11.9230966 31.8286151,12.3702128 31.8286151,12.916688 L31.8286151,13.9102794 C31.8286151,14.4567547 31.3810252,14.9038708 30.8339709,14.9038708 L25.3634277,14.9038708 C24.7666412,14.9038708 24.2195868,14.5561138 23.9709258,14.0096386 L22.3297628,10.1843117 L16.7597552,22.4551653 C16.5110941,23.0016406 16.013772,23.3493976 15.4169855,23.3493976 L15.4169855,23.3493976 Z" id="Shape"></path>
            </g>
        </g>
    </g>
</svg>