<?xml version="1.0" encoding="UTF-8"?>
<svg width="62px" height="62px" viewBox="0 0 62 62" version="1.1" xmlns="http://www.w3.org/2000/svg" xmlns:xlink="http://www.w3.org/1999/xlink">
    <!-- Generator: Sketch 42 (36781) - http://www.bohemiancoding.com/sketch -->
    <title>product-icon/sheduling</title>
    <desc>Created with Sketch.</desc>
    <defs></defs>
    <g id="Symbols" stroke="none" stroke-width="1" fill="none" fill-rule="evenodd">
        <g id="product-icon/sheduling">
            <ellipse id="Oval-Copy-11" fill="#EB686C" cx="30.6044376" cy="30.7228916" rx="30.6044376" ry="30.7228916"></ellipse>
            <g id="team_member-copy" transform="translate(13.000000, 14.000000)" fill="#FFFFFF">
                <g id="Group">
                    <path d="M22.6472839,13.5180723 L15.3022188,13.5180723 C13.2823259,13.5180723 11.6296863,15.1771084 11.6296863,17.2048193 L11.6296863,22.7349398 C11.6296863,23.4108434 11.9357307,24.0253012 12.3641928,24.4554217 C12.7926549,24.8855422 13.4047437,25.1927711 14.0780413,25.1927711 L14.0780413,30.7228916 C14.0780413,32.7506024 15.7306809,34.4096386 17.7505738,34.4096386 L20.1989288,34.4096386 C22.2188217,34.4096386 23.8714614,32.7506024 23.8714614,30.7228916 L23.8714614,25.1927711 C24.544759,25.1927711 25.1568477,24.946988 25.5853099,24.4554217 C26.013772,24.0253012 26.3198164,23.4108434 26.3198164,22.7349398 L26.3198164,17.2048193 C26.3198164,15.1771084 24.6671767,13.5180723 22.6472839,13.5180723 Z" id="Shape"></path>
                    <ellipse id="Oval" cx="18.9747513" cy="6.75903614" rx="4.28462127" ry="4.30120482"></ellipse>
                    <path d="M10.1606733,27.4662651 C10.0382555,27.3433735 9.85462892,27.2204819 9.73221117,27.0975904 C8.56924254,25.8686747 7.89594491,24.3325301 7.89594491,22.7349398 L7.89594491,17.2048193 C7.89594491,15.2385542 8.69166029,13.3951807 9.97704667,12.1048193 C10.3442999,11.7361446 10.0382555,11.060241 9.54858454,11.060241 L3.67253252,11.060241 C1.65263963,11.060241 -4.34915217e-15,12.7192771 -4.34915217e-15,14.746988 L-4.34915217e-15,20.2771084 C-4.34915217e-15,20.953012 0.306044376,21.5674699 0.734506503,21.9975904 C1.16296863,22.4277108 1.77505738,22.7349398 2.44835501,22.7349398 L2.44835501,28.2650602 C2.44835501,30.2927711 4.10099464,31.9518072 6.12088753,31.9518072 L8.56924254,31.9518072 C9.12012242,31.9518072 9.60979342,31.8289157 10.0382555,31.6445783 C10.283091,31.5216867 10.4055088,31.3373494 10.4055088,31.0915663 L10.4055088,27.9578313 C10.4055088,27.773494 10.3442999,27.5891566 10.1606733,27.4662651 L10.1606733,27.4662651 Z" id="Shape"></path>
                    <ellipse id="Oval" cx="7.34506503" cy="4.30120482" rx="4.28462127" ry="4.30120482"></ellipse>
                    <path d="M34.2769702,11.060241 L28.4009181,11.060241 C27.8500383,11.060241 27.6052028,11.6746988 27.972456,12.1048193 C29.2578424,13.4566265 30.0535578,15.2385542 30.0535578,17.2048193 L30.0535578,22.7349398 C30.0535578,24.3325301 29.441469,25.8686747 28.2172915,27.0975904 C28.0948738,27.2204819 27.972456,27.3433735 27.7888294,27.4662651 C27.6664116,27.5891566 27.5439939,27.773494 27.5439939,27.9578313 L27.5439939,31.0915663 C27.5439939,31.3373494 27.6664116,31.5831325 27.9112471,31.6445783 C28.3397093,31.8289157 28.8293803,31.9518072 29.3802601,31.9518072 L31.8286151,31.9518072 C33.848508,31.9518072 35.5011477,30.2927711 35.5011477,28.2650602 L35.5011477,22.7349398 C36.1744453,22.7349398 36.786534,22.4891566 37.2149962,21.9975904 C37.6434583,21.5674699 37.9495027,20.953012 37.9495027,20.2771084 L37.9495027,14.746988 C37.9495027,12.7192771 36.296863,11.060241 34.2769702,11.060241 L34.2769702,11.060241 Z" id="Shape"></path>
                    <ellipse id="Oval" cx="30.6044376" cy="4.30120482" rx="4.28462127" ry="4.30120482"></ellipse>
                </g>
            </g>
        </g>
    </g>
</svg>