<?xml version="1.0" encoding="UTF-8"?>
<svg width="62px" height="62px" viewBox="0 0 62 62" version="1.1" xmlns="http://www.w3.org/2000/svg" xmlns:xlink="http://www.w3.org/1999/xlink">
    <!-- Generator: Sketch 42 (36781) - http://www.bohemiancoding.com/sketch -->
    <title>product-icon/timesheet</title>
    <desc>Created with Sketch.</desc>
    <defs></defs>
    <g id="Symbols" stroke="none" stroke-width="1" fill="none" fill-rule="evenodd">
        <g id="product-icon/timesheet">
            <ellipse id="Oval-Copy-7" fill="#8A71F3" cx="30.6044376" cy="30.7228916" rx="30.6044376" ry="30.7228916"></ellipse>
            <g id="today" transform="translate(12.000000, 12.000000)" fill="#FFFFFF">
                <path d="M18.3626626,0 C8.26319816,0 0,8.29518072 0,18.4337349 C0,28.5722892 8.26319816,36.8674699 18.3626626,36.8674699 C28.462127,36.8674699 36.7253252,28.5722892 36.7253252,18.4337349 C36.7253252,8.29518072 28.462127,0 18.3626626,0 Z M18.3626626,33.1807229 C10.283091,33.1807229 3.67253252,26.5445783 3.67253252,18.4337349 C3.67253252,10.3228916 10.283091,3.68674699 18.3626626,3.68674699 C26.4422341,3.68674699 33.0527927,10.3228916 33.0527927,18.4337349 C33.0527927,26.5445783 26.4422341,33.1807229 18.3626626,33.1807229 Z M20.1989288,17.6963855 L20.1989288,9.8313253 C20.1989288,9.15542169 19.648049,8.60240964 18.9747513,8.60240964 L17.7505738,8.60240964 C17.0772762,8.60240964 16.5263963,9.15542169 16.5263963,9.8313253 L16.5263963,18.4337349 C16.5263963,18.9253012 16.710023,19.4168675 17.0772762,19.7240964 L22.9533282,25.6228916 C23.4429992,26.1144578 24.1775057,26.1144578 24.6671767,25.6228916 L25.524101,24.7626506 C26.013772,24.2710843 26.013772,23.5337349 25.524101,23.0421687 L20.1989288,17.6963855 L20.1989288,17.6963855 Z" id="Shape"></path>
            </g>
        </g>
    </g>
</svg>