<?xml version="1.0" encoding="UTF-8"?>
<svg width="62px" height="62px" viewBox="0 0 62 62" version="1.1" xmlns="http://www.w3.org/2000/svg" xmlns:xlink="http://www.w3.org/1999/xlink">
    <!-- Generator: Sketch 46.1 (44463) - http://www.bohemiancoding.com/sketch -->
    <title>product-icon/timesheetvector</title>
    <desc>Created with Sketch.</desc>
    <defs>
        <polygon id="path-1" points="6.69815388e-16 19.9461167 6.69815388e-16 0.123380979 15.9269474 0.123380979 15.9269474 19.9461167"></polygon>
        <polygon id="path-3" points="0.0438963006 0.357361702 19.8346723 0.357361702 19.8346723 16.9218362 0.0438963006 16.9218362 0.0438963006 0.357361702"></polygon>
        <polygon id="path-5" points="15.9822609 19.8399649 15.9822609 0.0405620494 0.0546523715 0.0405620494 0.0546523715 19.8399649 15.9822609 19.8399649"></polygon>
        <polygon id="path-7" points="19.9742887 16 0.0382832435 16 0.0382832435 0.102446255 19.9742887 0.102446255 19.9742887 16"></polygon>
    </defs>
    <g id="Ready" stroke="none" stroke-width="1" fill="none" fill-rule="evenodd">
        <g id="Workflow-integration" transform="translate(-91.000000, -118.000000)">
            <g id="product-icon/timesheet" transform="translate(91.000000, 118.000000)">
                <ellipse id="Oval-Copy-2" fill="#00A1E0" cx="30.6044376" cy="30.7228916" rx="30.6044376" ry="30.7228916"></ellipse>
                <g id="Page-1" transform="translate(13.000000, 14.000000)">
                    <g id="Group-3" transform="translate(0.000000, 12.000000)">
                        <mask id="mask-2" fill="white">
                            <use xlink:href="#path-1"></use>
                        </mask>
                        <g id="Clip-2"></g>
                        <path d="M0.3768,15.9978596 C-0.0211130435,15.3297895 -0.108765217,14.5192632 0.1368,13.7803158 C0.971234783,11.2736491 1.61193043,8.70592982 2.05332174,6.09961404 C2.3034087,4.64487719 3.67523478,3.66978947 5.11766957,3.9217193 C5.2474087,3.94452632 5.3754087,3.97715789 5.50027826,4.01891228 L6.40810435,4.31364912 C6.27523478,3.7817193 6.27523478,3.22487719 6.40810435,2.69259649 C6.85958261,0.874701754 8.68636522,-0.229508772 10.4881043,0.225929825 C11.9771478,0.602070175 13.0248,1.94768421 13.0341913,3.49610526 C13.0414957,4.34101754 12.730887,5.15750877 12.1646261,5.78031579 C13.2081043,5.98031579 14.202887,6.13119298 15.1733217,6.26803509 C15.6477565,6.33119298 15.9820174,6.77014035 15.9194087,7.24873684 C15.8571478,7.72733333 15.4216696,8.06452632 14.9472348,8.00136842 C13.6915826,7.83996491 12.3802783,7.61540351 11.0446261,7.33821053 C10.9312348,7.31435088 10.8234087,7.26803509 10.7281043,7.20136842 C10.2453217,6.86242105 10.0199304,6.25821053 10.1611478,5.68207018 L10.1889739,5.5662807 C10.266887,5.26101754 10.4414957,4.98978947 10.6863652,4.79435088 C11.0846261,4.48487719 11.3141913,4.00312281 11.3054957,3.49610526 C11.3023652,2.58733333 10.5694957,1.85294737 9.66862609,1.85645614 C8.91662609,1.85891228 8.26375652,2.37961404 8.08810435,3.11715789 C8.00462609,3.45891228 8.03384348,3.8185614 8.17158261,4.1417193 C8.29610435,4.43154386 8.32288696,4.75435088 8.24810435,5.06101754 L8.22027826,5.17680702 C8.06932174,5.7462807 7.58723478,6.16417544 7.00636522,6.2294386 C6.88949565,6.24277193 6.77123478,6.23189474 6.65853913,6.19785965 C6.07766957,6.02242105 5.50375652,5.84698246 4.95071304,5.654 C4.69575652,5.56768421 4.41610435,5.5985614 4.18549565,5.73821053 C3.95627826,5.874 3.79801739,6.10522807 3.7541913,6.36978947 C3.29749565,9.06417544 2.63453913,11.7189123 1.77158261,14.3101404 C1.61053913,14.7950526 1.86966957,15.3199649 2.35071304,15.4827719 C2.38897391,15.4954035 2.42758261,15.5059298 2.46723478,15.5136491 C5.8501913,16.096807 9.16810435,17.0136491 12.3733217,18.2504912 C12.8234087,18.4143509 13.0568,18.9147018 12.8943652,19.3687368 C12.7319304,19.8224211 12.2359304,20.0578596 11.7858435,19.894 C11.7754087,19.8904912 11.7646261,19.8862807 11.7541913,19.8820702 C8.66166957,18.6950526 5.46166957,17.8161053 2.1994087,17.2575088 C1.43871304,17.1266316 0.772626087,16.6662807 0.3768,15.9978596" id="Fill-1" fill="#FFFFFF" mask="url(#mask-2)"></path>
                    </g>
                    <g id="Group-6" transform="translate(3.000000, 0.000000)">
                        <mask id="mask-4" fill="white">
                            <use xlink:href="#path-3"></use>
                        </mask>
                        <g id="Clip-5"></g>
                        <path d="M17.2782456,7.02566596 C19.094386,7.50238936 20.1915789,9.40675106 19.7287719,11.2785596 C19.3494737,12.8129 18.0175439,13.8933043 16.4817544,13.9124745 C15.6368421,13.9200702 14.8207018,13.5967085 14.1978947,13.0082191 C13.9975439,14.0933255 13.8470175,15.1277936 13.7101754,16.1369426 C13.6536842,16.5847298 13.2845614,16.9200277 12.8470175,16.9218362 L12.734386,16.9218362 C12.2557895,16.8607085 11.9154386,16.4111128 11.9747368,15.9177511 C11.9754386,15.9123255 11.9761404,15.9072617 11.9768421,15.9018362 C12.1382456,14.5960915 12.3624561,13.2324745 12.6396491,11.8435383 C12.6635088,11.7256234 12.7101754,11.6134957 12.7764912,11.5143894 C13.1154386,11.0123468 13.72,10.7779638 14.2957895,10.9248149 L14.4115789,10.9537511 C14.7168421,11.0344106 14.9880702,11.2163468 15.1835088,11.4709851 C15.4933333,11.885134 15.9747368,12.1238574 16.4817544,12.1148149 C17.3905263,12.1115596 18.1249123,11.3494532 18.1217544,10.4126447 C18.1189474,9.63064468 17.5982456,8.95172979 16.8610526,8.76907021 C16.5192982,8.6822617 16.1596491,8.71264468 15.8364912,8.85587872 C15.5463158,8.98500638 15.2238596,9.01321915 14.917193,8.93545319 L14.8010526,8.90651702 C14.2315789,8.7495383 13.8136842,8.24821915 13.7484211,7.6441766 C13.7350877,7.52264468 13.7459649,7.39966596 13.78,7.28247447 C13.9554386,6.67843191 14.1308772,6.0816234 14.3242105,5.50651702 C14.4101754,5.24138936 14.3796491,4.95058085 14.2396491,4.71077234 C14.1042105,4.47204894 13.8726316,4.30783617 13.6084211,4.2622617 C10.9136842,3.78734681 8.25894737,3.09794255 5.66807018,2.20055957 C5.18280702,2.03309149 4.65789474,2.30255957 4.4954386,2.80279362 C4.48245614,2.84258085 4.47192982,2.88272979 4.46421053,2.92396383 C3.88140351,6.44187872 2.9645614,9.89215532 1.7277193,13.2252404 C1.54631579,13.6864106 1.03684211,13.9084957 0.589473684,13.7214957 C0.154736842,13.5399213 -0.0631578947,13.0364319 0.0957894737,12.5814106 C1.28315789,9.36551702 2.16210526,6.03785745 2.72035088,2.64545319 C2.96947368,1.14728298 4.34982456,0.140665957 5.80315789,0.397112766 C5.93824561,0.420985106 6.07157895,0.455708511 6.20140351,0.500559574 C8.70666667,1.36792128 11.2733333,2.0345383 13.8785965,2.4935383 C15.3333333,2.75360213 16.3080702,4.18015532 16.0561404,5.68013404 C16.0333333,5.81504894 16.0007018,5.94815532 15.9589474,6.07800638 C15.8610526,6.38545319 15.7592982,6.70375106 15.6642105,7.02204894 C16.194386,6.88641064 16.7487719,6.88749574 17.2782456,7.02566596" id="Fill-4" fill="#FFFFFF" mask="url(#mask-4)"></path>
                    </g>
                    <g id="Group-9" transform="translate(19.000000, 4.000000)">
                        <mask id="mask-6" fill="white">
                            <use xlink:href="#path-5"></use>
                        </mask>
                        <g id="Clip-8"></g>
                        <path d="M4.20306087,0.0680350877 C7.30253913,1.26382456 10.510887,2.15014035 13.7821913,2.71364912 C15.2232348,2.96277193 16.190887,4.34312281 15.9439304,5.79645614 C15.9209739,5.93154386 15.8879304,6.06452632 15.8448,6.19435088 C15.0103652,8.69961404 14.3696696,11.2666316 13.9282783,13.8715439 C13.6781913,15.3266316 12.3063652,16.3013684 10.8639304,16.0490877 C10.7341913,16.0266316 10.6061913,15.9943509 10.4813217,15.9522456 L9.57314783,15.6575088 C9.70601739,16.1894386 9.70601739,16.7466316 9.57314783,17.2785614 C9.19749565,18.7834737 7.85627826,19.8389123 6.31784348,19.8399649 C5.81384348,19.839614 5.31610435,19.7269825 4.86045217,19.5101404 C3.69697391,18.9561053 2.95262609,17.7764561 2.9474087,16.4785614 C2.93975652,15.6336491 3.25071304,14.8171579 3.81697391,14.1943509 C2.77349565,13.9943509 1.77836522,13.8434737 0.807930435,13.7066316 C0.333843478,13.6434737 -0.000417391304,13.2045263 0.0621913043,12.7259298 C0.124452174,12.2473333 0.559582609,11.9104912 1.03436522,11.9732982 C2.29001739,12.1347018 3.60132174,12.3592632 4.93662609,12.6364561 C5.05071304,12.6603158 5.15784348,12.7069825 5.25349565,12.7732982 C5.73627826,13.1122456 5.96201739,13.7164561 5.82010435,14.2925965 L5.79227826,14.408386 C5.71471304,14.7136491 5.54010435,14.9848772 5.29523478,15.1803158 C4.89662609,15.4897895 4.66706087,15.9715439 4.67575652,16.4785614 C4.67923478,17.3873333 5.41210435,18.1217193 6.31297391,18.1182105 C7.06497391,18.1157544 7.71749565,17.5950526 7.89314783,16.8575088 C7.97697391,16.5157544 7.94775652,16.1561053 7.81001739,15.8329474 C7.68549565,15.5431228 7.65871304,15.2203158 7.73314783,14.9136491 L7.76097391,14.7978596 C7.91227826,14.228386 8.39436522,13.8104912 8.97523478,13.7452281 C9.09210435,13.7315439 9.21036522,13.7424211 9.32306087,13.776807 C9.90393043,13.9522456 10.4778435,14.1276842 11.030887,14.3206667 C11.2854957,14.4069825 11.5654957,14.3761053 11.7961043,14.2364561 C12.0253217,14.1006667 12.1832348,13.8694386 12.2270609,13.6048772 C12.6841043,10.9104912 13.3470609,8.25575439 14.2100174,5.66452632 C14.370713,5.17926316 14.1115826,4.65435088 13.6305391,4.49189474 C13.5926261,4.47926316 13.5536696,4.46873684 13.5143652,4.46101754 C10.1314087,3.87785965 6.81349565,2.96136842 3.60827826,1.72417544 C3.16514783,1.54312281 2.95123478,1.03329825 3.13106087,0.586280702 C3.30566957,0.15154386 3.78984348,-0.0667017544 4.22706087,0.0925964912 L4.20306087,0.0680350877 Z" id="Fill-7" fill="#FFFFFF" mask="url(#mask-6)"></path>
                    </g>
                    <g id="Group-12" transform="translate(11.000000, 19.000000)">
                        <mask id="mask-8" fill="white">
                            <use xlink:href="#path-7"></use>
                        </mask>
                        <g id="Clip-11"></g>
                        <path d="M6.39761404,12.220487 C9.09235088,12.6771826 11.7467368,13.3401391 14.3379649,14.2030957 C14.8232281,14.3641391 15.3481404,14.1050087 15.5105965,13.6239652 C15.5235789,13.5860522 15.5337544,13.5467478 15.5418246,13.5074435 C16.1246316,10.1248348 17.0414737,6.80692174 18.2783158,3.60135652 C18.4421754,3.15126957 18.9428772,2.91822609 19.3965614,3.08031304 C19.8505965,3.2424 20.0860351,3.73874783 19.9221754,4.18883478 C19.9183158,4.19926957 19.9141053,4.21005217 19.9098947,4.22048696 C18.7141053,7.31996522 17.8277895,10.5286609 17.2646316,13.7996174 C17.0155088,15.2406609 15.6351579,16.2086609 14.1818246,15.9617043 C14.0467368,15.9384 13.9134035,15.9053565 13.7835789,15.8622261 C11.2783158,15.0277913 8.71164912,14.3870957 6.10638596,13.9457043 C4.65129825,13.6956174 3.6765614,12.3237913 3.92884211,10.8813565 C3.95129825,10.7516174 3.98392982,10.6236174 4.02568421,10.4987478 C4.12392982,10.2030957 4.22568421,9.8970087 4.32042105,9.59092174 C3.78849123,9.72344348 3.23164912,9.72344348 2.69936842,9.59092174 C0.869894737,9.18987826 -0.28554386,7.3944 0.119017544,5.58048696 C0.468140351,4.01561739 1.88287719,2.91231304 3.49936842,2.94396522 C4.3442807,2.93666087 5.16077193,3.24761739 5.78357895,3.81353043 C5.98357895,2.77005217 6.13445614,1.77526957 6.27129825,0.804834783 C6.36252632,0.335269565 6.82077193,0.0277913043 7.29445614,0.118226087 C7.72638596,0.20066087 8.02919298,0.588834783 8.00112281,1.02396522 C7.8397193,2.27961739 7.61550877,3.59092174 7.33831579,4.92657391 C7.31410526,5.03996522 7.2674386,5.1477913 7.20112281,5.24309565 C6.86217544,5.72587826 6.25796491,5.95161739 5.68182456,5.81005217 L5.56603509,5.78222609 C5.26077193,5.70466087 4.98989474,5.53005217 4.79410526,5.28518261 C4.48392982,4.89005217 4.0042807,4.66326957 3.49936842,4.67266087 C2.59059649,4.67613913 1.8565614,5.40866087 1.8597193,6.30987826 C1.86217544,7.06153043 2.38322807,7.7144 3.12042105,7.89005217 C3.46217544,7.97353043 3.82182456,7.94431304 4.14498246,7.80692174 C4.43480702,7.68205217 4.75761404,7.65526957 5.0642807,7.73005217 L5.18007018,7.75787826 C5.74954386,7.90883478 6.1674386,8.39092174 6.23270175,8.9717913 C6.24638596,9.08866087 6.23550877,9.20692174 6.20112281,9.31961739 C6.02568421,9.90048696 5.85024561,10.4744 5.65726316,11.0274435 C5.57094737,11.2824 5.60182456,11.5620522 5.74147368,11.7930087 C5.88322807,12.0267478 6.12463158,12.184313 6.39761404,12.220487" id="Fill-10" fill="#FFFFFF" mask="url(#mask-8)"></path>
                    </g>
                </g>
            </g>
        </g>
    </g>
</svg>