<?xml version="1.0" encoding="UTF-8" standalone="no"?>
<svg width="58px" height="47px" viewBox="0 0 58 47" version="1.1" xmlns="http://www.w3.org/2000/svg" xmlns:xlink="http://www.w3.org/1999/xlink">
    <!-- Generator: Sketch 40.1 (33804) - http://www.bohemiancoding.com/sketch -->
    <title>80 -Archive Folder- (document, paper, write, note, flat)</title>
    <desc>Created with Sketch.</desc>
    <defs></defs>
    <g id="Page-1" stroke="none" stroke-width="1" fill="none" fill-rule="evenodd">
        <g id="Icons" transform="translate(-1198.000000, -1201.000000)">
            <g id="80--Archive-Folder--(document,-paper,-write,-note,-flat)" transform="translate(1198.000000, 1201.000000)">
                <path d="M0,13.014 L0,43.014 C0,44.671 1.343,46.014 3,46.014 L55,46.014 C56.657,46.014 58,44.671 58,43.014 L58,13.014 C58,11.357 56.657,10.014 55,10.014 L3,10.014 C1.343,10.014 0,11.357 0,13.014" id="Fill-596" fill="#FBC176"></path>
                <path d="M53,10.014 C53,7.805 51.209,6.014 49,6.014 L33,6.014 L28,0.014 L6,0.014 C4.343,0.014 3,1.357 3,3.014 L3,10.014 L53,10.014 Z" id="Fill-597" fill="#C39A6E"></path>
                <polygon id="Fill-602" fill="#546080" points="29 19.014 31 19.014 31 17.014 29 17.014"></polygon>
                <polygon id="Fill-603" fill="#546080" points="29 27.014 31 27.014 31 25.014 29 25.014"></polygon>
                <polygon id="Fill-604" fill="#546080" points="27 29.014 29 29.014 29 27.014 27 27.014"></polygon>
                <polygon id="Fill-605" fill="#546080" points="27 25.014 29 25.014 29 23.014 27 23.014"></polygon>
                <polygon id="Fill-606" fill="#546080" points="29 23.014 31 23.014 31 21.014 29 21.014"></polygon>
                <polygon id="Fill-607" fill="#546080" points="27 21.014 29 21.014 29 19.014 27 19.014"></polygon>
                <polygon id="Fill-608" fill="#546080" points="29 15.014 31 15.014 31 13.014 29 13.014"></polygon>
                <polygon id="Fill-609" fill="#546080" points="27 17.014 29 17.014 29 15.014 27 15.014"></polygon>
                <polygon id="Fill-610" fill="#546080" points="27 13.014 29 13.014 29 11.014 27 11.014"></polygon>
                <polygon id="Fill-611" fill="#546080" points="29 31.014 31 31.014 31 29.014 29 29.014"></polygon>
                <path d="M29,37.014 L29,37.014 C27.343,37.014 26,35.671 26,34.014 L26,31.014 L32,31.014 L32,34.014 C32,35.671 30.657,37.014 29,37.014" id="Fill-612" fill="#546080"></path>
                <path d="M18,17.014 L6,17.014 C5.447,17.014 5,16.567 5,16.014 C5,15.461 5.447,15.014 6,15.014 L18,15.014 C18.553,15.014 19,15.461 19,16.014 C19,16.567 18.553,17.014 18,17.014" id="Fill-613" fill="#FFFFFF"></path>
                <path d="M18,21.014 L6,21.014 C5.447,21.014 5,20.567 5,20.014 C5,19.461 5.447,19.014 6,19.014 L18,19.014 C18.553,19.014 19,19.461 19,20.014 C19,20.567 18.553,21.014 18,21.014" id="Fill-614" fill="#FFFFFF"></path>
            </g>
        </g>
    </g>
</svg>