<?xml version="1.0" encoding="UTF-8"?>
<svg width="101px" height="27px" viewBox="0 0 101 27" version="1.1" xmlns="http://www.w3.org/2000/svg" xmlns:xlink="http://www.w3.org/1999/xlink">
    <!-- Generator: Sketch 42 (36781) - http://www.bohemiancoding.com/sketch -->
    <title>logo/precursive copy</title>
    <desc>Created with Sketch.</desc>
    <defs></defs>
    <g id="Ready" stroke="none" stroke-width="1" fill="none" fill-rule="evenodd">
        <g id="home-1.1---alt-2" transform="translate(-795.000000, -3722.000000)" fill="#FFFFFF">
            <g id="precursive-homepage/sales-force-link" transform="translate(152.000000, 3567.000000)">
                <g transform="translate(-141.000000, 36.000000)" id="Group-2">
                    <g transform="translate(0.000000, 82.000000)">
                        <g id="Group-3">
                            <g id="logo/precursive-white" transform="translate(784.000000, 36.000000)">
                                <path d="M6.42396,6.37773333 C7.39466,5.39606667 8.81076,4.80362222 10.13676,4.80362222 C13.67956,4.80362222 15.32006,8.16023333 14.80156,11.4910111 C14.25756,14.9492333 11.64466,18.3058444 7.94886,18.3058444 C6.67556,18.3058444 5.41416,17.7392333 4.86166,16.7041778 L4.81066,16.7041778 L3.56796,24.6556778 L-0.00034,24.6556778 L3.03926,5.21695556 L6.60756,5.21695556 L6.42396,6.37773333 Z M11.17376,11.5409556 C11.43896,9.83767778 10.60426,8.00523333 8.76996,8.00523333 C6.93566,8.00523333 5.52806,9.83767778 5.26116,11.5409556 C4.99596,13.2476778 5.82556,15.1042333 7.65986,15.1042333 C9.49586,15.1042333 10.90686,13.2476778 11.17376,11.5409556 L11.17376,11.5409556 Z" id="Fill-1"></path>
                                <path d="M20.07717,6.53325 L20.12817,6.53325 C21.01557,5.42241667 22.18177,4.80413889 23.50777,4.80413889 C24.01437,4.80413889 24.50567,4.93158333 24.93747,5.11241667 L23.97867,8.46902778 C23.59447,8.15902778 23.10827,8.00402778 22.57447,8.00402778 C20.10097,8.00402778 19.50087,10.2239722 19.19317,12.1873056 L18.30237,17.8913056 L14.73407,17.8913056 L16.71457,5.21747222 L20.28287,5.21747222 L20.07717,6.53325 Z" id="Fill-4"></path>
                                <path d="M41.66173,11.8101389 L40.58903,18.6783611 C40.36123,20.1233056 40.32043,21.8524167 42.12923,21.8524167 C43.94143,21.8524167 44.43953,20.1233056 44.66563,18.6783611 L45.73833,11.8101389 L49.30663,11.8101389 L48.14213,19.2725278 C47.56413,22.9615278 45.37453,24.8990278 41.65493,24.8990278 C37.93363,24.8990278 36.35093,22.9615278 36.92893,19.2725278 L38.09343,11.8101389 L41.66173,11.8101389 Z" id="Fill-6"></path>
                                <path d="M54.20246,13.1278111 L54.25346,13.1278111 C55.14426,12.0169778 56.30876,11.3987 57.63646,11.3987 C58.14306,11.3987 58.63266,11.5261444 59.06446,11.7069778 L58.10736,15.0635889 C57.71976,14.7518667 57.23356,14.5985889 56.70146,14.5985889 C54.22966,14.5985889 53.62786,16.8202556 53.32016,18.7818667 L52.42936,24.4858667 L48.86106,24.4858667 L50.84156,11.8085889 L54.40816,11.8085889 L54.20246,13.1278111 Z" id="Fill-8"></path>
                                <path d="M65.6659,14.8062889 C65.2341,14.3137333 64.6323,13.9279556 63.9183,13.9279556 C63.3318,13.9279556 62.6705,14.3929556 62.577,15.0112333 C62.4308,15.9429556 63.6922,16.1995667 64.8771,16.7679 C66.0875,17.3362333 67.2248,18.2145667 66.8814,20.4069556 C66.4411,23.2227889 63.937,24.9002333 61.3122,24.9002333 C59.6292,24.9002333 58.1196,24.1252333 57.2339,22.7836222 L59.1974,20.6394556 C59.7652,21.4144556 60.5761,22.1119556 61.6199,22.1119556 C62.4087,22.1119556 63.1329,21.5694556 63.2604,20.7445111 C63.4355,19.6319556 62.2268,19.3753444 61.0623,18.8311222 C59.8978,18.2903444 58.7673,17.5411778 59.0852,15.5037889 C59.4558,13.1271222 61.3581,11.3962889 63.7007,11.3962889 C65.0267,11.3962889 66.6451,11.8096222 67.524,12.7137889 L65.6659,14.8062889 Z" id="Fill-10"></path>
                                <polygon id="Fill-12" points="70.96514 24.4879333 67.39514 24.4879333 69.37734 11.8089333 72.94564 11.8089333"></polygon>
                                <path d="M74.10776,7.22282778 C73.92246,8.41116111 72.83106,9.36699444 71.65806,9.36699444 C70.48506,9.36699444 69.69116,8.41116111 69.87816,7.22282778 C70.06006,6.06205 71.15826,5.08038333 72.32616,5.08038333 C73.50256,5.08038333 74.28966,6.06205 74.10776,7.22282778" id="Fill-14"></path>
                                <polygon id="Fill-16" points="79.65265 18.9630444 83.34335 11.8089333 87.24145 11.8089333 79.46055 24.7445444 77.62625 24.7445444 73.91175 11.8089333 77.83875 11.8089333"></polygon>
                                <path d="M89.16211,18.7308889 C88.91051,20.3308333 89.23691,22.1374444 91.09841,22.1374444 C92.27141,22.1374444 93.12311,21.4141111 93.76571,20.4083333 L96.96681,20.9491111 C95.70371,23.4807778 93.29311,24.8998889 90.66831,24.8998889 C86.79231,24.8998889 84.85941,22.1116111 85.46121,18.2658889 C86.06131,14.4184444 88.54841,11.3976667 92.59611,11.3976667 C96.70331,11.3976667 98.05651,14.4701111 97.46151,18.29 L97.39181,18.7308889 L89.16211,18.7308889 Z M94.37601,16.4851111 C94.40321,15.1934444 93.78441,13.9276111 92.40911,13.9276111 C90.97941,13.9276111 89.99681,15.1658889 89.61261,16.4851111 L94.37601,16.4851111 Z" id="Fill-18"></path>
                                <path d="M34.05814,11.4660389 C32.99224,11.4660389 31.97224,11.7088722 31.04234,12.1394278 L32.74574,1.23776111 L31.93144,1.23776111 L31.37214,4.81481667 C31.27014,4.80965 31.16984,4.80276111 31.06444,4.80276111 C27.01334,4.80276111 24.52794,7.82353889 23.92614,11.6692611 C23.32604,15.5167056 25.25894,18.3049833 29.13324,18.3049833 C29.17744,18.3049833 29.21994,18.3032611 29.26414,18.2998167 L27.96874,26.5923167 L27.75624,27.9580389 L28.57054,27.9580389 L28.78474,26.5923167 L29.13664,24.3413722 C29.88464,24.7409278 30.77034,24.9682611 31.76994,24.9682611 C32.86644,24.9682611 33.92214,24.7374833 34.97614,24.1932611 L35.52014,20.7092056 C34.76874,21.4325389 33.80144,21.9250944 32.83074,21.9250944 C30.79244,21.9250944 29.80304,20.2700389 30.11414,18.2808722 C30.40484,16.4225944 31.84984,14.51265 33.86434,14.51265 C34.95744,14.51265 35.65104,14.9759278 36.29364,15.75265 L36.83934,12.26515 C36.05734,11.7243722 35.05434,11.4660389 34.05814,11.4660389 M30.87234,7.33442778 C30.90974,7.33442778 30.94374,7.33787222 30.97774,7.33959444 L30.57824,9.89020556 L28.07924,9.89020556 C28.46344,8.57098333 29.44604,7.33442778 30.87234,7.33442778 M29.56334,15.5459833 C27.70354,15.5459833 27.37374,13.7359278 27.62364,12.1359833 L30.22804,12.1359833 L29.95094,13.9150389 L29.69764,15.5373722 C29.65344,15.5373722 29.60924,15.5459833 29.56334,15.5459833" id="Fill-20"></path>
                                <path d="M99.41022,11.39715 C99.60742,11.39715 99.79612,11.4470944 99.97802,11.5487056 C100.15652,11.6485944 100.29932,11.7932611 100.40472,11.9792611 C100.51012,12.1635389 100.55942,12.3598722 100.55942,12.5613722 C100.55942,12.7645944 100.51182,12.9592056 100.40812,13.1434833 C100.30442,13.3260389 100.16502,13.4707056 99.98482,13.5740389 C99.80292,13.67565 99.61082,13.7290389 99.41022,13.7290389 C99.20962,13.7290389 99.01922,13.67565 98.83732,13.5740389 C98.65712,13.4707056 98.51602,13.3260389 98.41402,13.1434833 C98.31372,12.9592056 98.25932,12.7645944 98.25932,12.5613722 C98.25932,12.3598722 98.31372,12.1635389 98.41572,11.9792611 C98.52112,11.7932611 98.66222,11.6485944 98.84412,11.5487056 C99.02432,11.4470944 99.21472,11.39715 99.41022,11.39715 M99.41022,11.6279278 C99.25042,11.6279278 99.10082,11.6675389 98.95462,11.7484833 C98.81012,11.8277056 98.69452,11.9413722 98.61122,12.0912056 C98.52792,12.2410389 98.48542,12.3994833 98.48542,12.5613722 C98.48542,12.7249833 98.52792,12.8799833 98.60952,13.0263722 C98.69112,13.1762056 98.80502,13.2915944 98.95292,13.3742611 C99.09742,13.4569278 99.24872,13.4965389 99.41022,13.4965389 C99.57002,13.4965389 99.72472,13.4569278 99.86922,13.3742611 C100.01712,13.2915944 100.13102,13.1762056 100.20922,13.0263722 C100.29422,12.8799833 100.33162,12.7249833 100.33162,12.5613722 C100.33162,12.4012056 100.29082,12.2444833 100.20922,12.0929278 C100.12592,11.9413722 100.01202,11.8277056 99.86582,11.7484833 C99.72132,11.6675389 99.56662,11.6279278 99.41022,11.6279278 M99.68902,12.7353167 L99.93382,12.8179833 C99.89132,12.9437056 99.83012,13.0435944 99.74342,13.1107611 C99.65332,13.1813722 99.54792,13.2140944 99.42722,13.2140944 C99.25552,13.2140944 99.11782,13.1555389 99.00902,13.0435944 C98.89852,12.9282056 98.84582,12.7714833 98.84582,12.5734278 C98.84582,12.4425389 98.87132,12.3254278 98.91892,12.2238167 C98.96482,12.1204833 99.03622,12.0447056 99.12632,11.9930389 C99.21642,11.9413722 99.31842,11.9172611 99.43232,11.9172611 C99.55302,11.9172611 99.65672,11.9482611 99.73832,12.0068167 C99.81992,12.0670944 99.88622,12.1600944 99.93382,12.2892611 L99.68902,12.3460944 C99.66012,12.2703167 99.62442,12.2169278 99.57852,12.1859278 C99.53432,12.1497611 99.48162,12.1342611 99.42042,12.1342611 C99.32862,12.1342611 99.25552,12.1687056 99.19942,12.2375944 C99.13992,12.3082056 99.10932,12.4167056 99.10932,12.5648167 C99.10932,12.7112056 99.13822,12.8214278 99.19432,12.8903167 C99.25382,12.9609278 99.32012,12.9953722 99.40172,12.9953722 C99.46802,12.9953722 99.52582,12.9764278 99.57682,12.9350944 C99.62442,12.8972056 99.66182,12.8300389 99.68902,12.7353167" id="Fill-22"></path>
                                <path d="M22.15236,66.5613056 L29.79046,17.3023056" id="Fill-28"></path>
                            </g>
                        </g>
                    </g>
                </g>
            </g>
        </g>
    </g>
</svg>