<?xml version="1.0" encoding="UTF-8"?>
<svg width="191px" height="51px" viewBox="0 0 191 51" version="1.1" xmlns="http://www.w3.org/2000/svg" xmlns:xlink="http://www.w3.org/1999/xlink">
    <!-- Generator: Sketch 42 (36781) - http://www.bohemiancoding.com/sketch -->
    <title>logo/precursive-white</title>
    <desc>Created with Sketch.</desc>
    <defs></defs>
    <g id="Ready" stroke="none" stroke-width="1" fill="none" fill-rule="evenodd">
        <g id="m-menu" transform="translate(-96.000000, -42.000000)" fill="#FFFFFF">
            <g id="logo/precursive-white" transform="translate(96.000000, 40.000000)">
                <path d="M12.15514,11.9325333 C13.9918567,10.0958667 16.67134,8.98742222 19.18034,8.98742222 C25.8838733,8.98742222 28.9879567,15.2675333 28.0068733,21.4993111 C26.97754,27.9695333 22.0335233,34.2496444 15.04049,34.2496444 C12.6312067,34.2496444 10.24444,33.1895333 9.19902333,31.2529778 L9.10252333,31.2529778 L6.75114,46.1299778 L-0.000643333333,46.1299778 L5.75075667,9.76075556 L12.50254,9.76075556 L12.15514,11.9325333 Z M21.1425067,21.5927556 C21.6443067,18.4059778 20.0649233,14.9775333 16.59414,14.9775333 C13.1233567,14.9775333 10.4599567,18.4059778 9.95494,21.5927556 C9.45314,24.7859778 11.0228733,28.2595333 14.4936567,28.2595333 C17.9676567,28.2595333 20.63749,24.7859778 21.1425067,21.5927556 L21.1425067,21.5927556 Z" id="Fill-1"></path>
                <path d="M37.989155,12.2235 L38.085655,12.2235 C39.764755,10.1451667 41.9713883,8.98838889 44.4803883,8.98838889 C45.438955,8.98838889 46.3685717,9.22683333 47.185605,9.56516667 L45.371405,15.8452778 C44.6444383,15.2652778 43.7244717,14.9752778 42.7144383,14.9752778 C38.0341883,14.9752778 36.898705,19.1287222 36.3164883,22.8020556 L34.630955,33.4740556 L27.8791717,33.4740556 L31.6265883,9.76172222 L38.3783717,9.76172222 L37.989155,12.2235 Z" id="Fill-4"></path>
                <path d="M78.8305283,22.0963889 L76.8008117,34.9466111 C76.3697783,37.6500556 76.2925783,40.8851667 79.7151117,40.8851667 C83.1440783,40.8851667 84.0865617,37.6500556 84.5143783,34.9466111 L86.544095,22.0963889 L93.2958783,22.0963889 L91.0924617,36.0582778 C89.998795,42.9602778 85.8557283,46.5852778 78.8176617,46.5852778 C71.7763783,46.5852778 68.7816617,42.9602778 69.8753283,36.0582778 L72.078745,22.0963889 L78.8305283,22.0963889 Z" id="Fill-6"></path>
                <path d="M102.559557,24.5617111 L102.656057,24.5617111 C104.34159,22.4833778 106.545007,21.3266 109.057223,21.3266 C110.01579,21.3266 110.94219,21.5650444 111.759223,21.9033778 L109.94824,28.1834889 C109.21484,27.6002667 108.294873,27.3134889 107.288057,27.3134889 C102.611023,27.3134889 101.472323,31.4701556 100.890107,35.1402667 L99.2045733,45.8122667 L92.45279,45.8122667 L96.2002067,22.0934889 L102.948773,22.0934889 L102.559557,24.5617111 Z" id="Fill-8"></path>
                <path d="M124.250183,27.7020889 C123.43315,26.7805333 122.29445,26.0587556 120.94345,26.0587556 C119.8337,26.0587556 118.582417,26.9287556 118.4055,28.0855333 C118.128867,29.8287556 120.515633,30.3088667 122.75765,31.3722 C125.047917,32.4355333 127.199867,34.0788667 126.5501,38.1807556 C125.716983,43.4490889 120.978833,46.5875333 116.0123,46.5875333 C112.8278,46.5875333 109.9714,45.1375333 108.295517,42.6274222 L112.010767,38.6157556 C113.085133,40.0657556 114.619483,41.3707556 116.594517,41.3707556 C118.08705,41.3707556 119.45735,40.3557556 119.6986,38.8123111 C120.029917,36.7307556 117.742867,36.2506444 115.53945,35.2324222 C113.336033,34.2206444 111.19695,32.8189778 111.798467,29.0070889 C112.4997,24.5604222 116.09915,21.3220889 120.531717,21.3220889 C123.040717,21.3220889 126.102983,22.0954222 127.766,23.7870889 L124.250183,27.7020889 Z" id="Fill-10"></path>
                <polygon id="Fill-12" points="134.277177 45.8161333 127.522177 45.8161333 131.27281 22.0941333 138.024593 22.0941333"></polygon>
                <path d="M140.223507,13.5136778 C139.87289,15.7370111 137.80779,17.5253444 135.58829,17.5253444 C133.36879,17.5253444 131.866607,15.7370111 132.22044,13.5136778 C132.564623,11.3419 134.64259,9.50523333 136.85244,9.50523333 C139.078373,9.50523333 140.56769,11.3419 140.223507,13.5136778" id="Fill-14"></path>
                <polygon id="Fill-16" points="150.715308 35.4792444 157.698692 22.0941333 165.074508 22.0941333 150.351825 46.2962444 146.881042 46.2962444 139.852625 22.0941333 147.283125 22.0941333"></polygon>
                <path d="M168.708698,35.0448889 C168.232632,38.0383333 168.850232,41.4184444 172.372482,41.4184444 C174.591982,41.4184444 176.203532,40.0651111 177.419432,38.1833333 L183.476415,39.1951111 C181.086432,43.9317778 176.525198,46.5868889 171.558665,46.5868889 C164.224665,46.5868889 160.567315,41.3701111 161.706015,34.1748889 C162.841498,26.9764444 167.547482,21.3246667 175.206365,21.3246667 C182.977832,21.3246667 185.538298,27.0731111 184.412465,34.22 L184.280582,35.0448889 L168.708698,35.0448889 Z M178.574215,30.8431111 C178.625682,28.4264444 177.454815,26.0581111 174.852532,26.0581111 C172.147315,26.0581111 170.288082,28.3748889 169.561115,30.8431111 L178.574215,30.8431111 Z" id="Fill-18"></path>
                <path d="M64.4433433,21.4525889 C62.4264933,21.4525889 60.4964933,21.9069222 58.7369767,22.7124778 L61.9600767,2.31581111 L60.4192933,2.31581111 L59.36101,9.00836667 C59.16801,8.9987 58.9782267,8.98581111 58.7787933,8.98581111 C51.1134767,8.98581111 46.41071,14.6375889 45.27201,21.8328111 C44.1365267,29.0312556 47.7938767,34.2480333 55.12466,34.2480333 C55.2082933,34.2480333 55.28871,34.2448111 55.3723433,34.2383667 L52.9212433,49.7533667 L52.51916,52.3085889 L54.0599433,52.3085889 L54.4652433,49.7533667 L55.1310933,45.5419222 C56.5464267,46.2894778 58.22231,46.7148111 60.11371,46.7148111 C62.18846,46.7148111 64.18601,46.2830333 66.1803433,45.2648111 L67.2096767,38.7462556 C65.78791,40.0995889 63.9576267,41.0211444 62.12091,41.0211444 C58.2641267,41.0211444 56.3920267,37.9245889 56.9806767,34.2029222 C57.5307267,30.7261444 60.2648933,27.1527 64.0766433,27.1527 C66.14496,27.1527 67.45736,28.0194778 68.67326,29.4727 L69.70581,22.9477 C68.2261433,21.9359222 66.32831,21.4525889 64.4433433,21.4525889 M58.41531,13.7224778 C58.4860767,13.7224778 58.55041,13.7289222 58.6147433,13.7321444 L57.8588267,18.5042556 L53.1303267,18.5042556 C53.8572933,16.0360333 55.7165267,13.7224778 58.41531,13.7224778 M55.9384767,29.0860333 C52.4194433,29.0860333 51.79541,25.6994778 52.26826,22.7060333 L57.1961933,22.7060333 L56.6718767,26.0345889 L56.1925933,29.0699222 C56.10896,29.0699222 56.0253267,29.0860333 55.9384767,29.0860333" id="Fill-20"></path>
                <path d="M188.09973,21.3237 C188.472863,21.3237 188.829913,21.4171444 189.174097,21.6072556 C189.511847,21.7941444 189.782047,22.0648111 189.98148,22.4128111 C190.180913,22.7575889 190.274197,23.1249222 190.274197,23.5019222 C190.274197,23.8821444 190.18413,24.2462556 189.987913,24.5910333 C189.791697,24.9325889 189.52793,25.2032556 189.186963,25.3965889 C188.84278,25.5867 188.479297,25.6865889 188.09973,25.6865889 C187.720163,25.6865889 187.359897,25.5867 187.015713,25.3965889 C186.674747,25.2032556 186.407763,24.9325889 186.214763,24.5910333 C186.02498,24.2462556 185.922047,23.8821444 185.922047,23.5019222 C185.922047,23.1249222 186.02498,22.7575889 186.21798,22.4128111 C186.417413,22.0648111 186.684397,21.7941444 187.02858,21.6072556 C187.369547,21.4171444 187.729813,21.3237 188.09973,21.3237 M188.09973,21.7554778 C187.797363,21.7554778 187.514297,21.8295889 187.237663,21.9810333 C186.964247,22.1292556 186.745513,22.3419222 186.587897,22.6222556 C186.43028,22.9025889 186.349863,23.1990333 186.349863,23.5019222 C186.349863,23.8080333 186.43028,24.0980333 186.58468,24.3719222 C186.73908,24.6522556 186.954597,24.8681444 187.234447,25.0228111 C187.507863,25.1774778 187.794147,25.2515889 188.09973,25.2515889 C188.402097,25.2515889 188.694813,25.1774778 188.96823,25.0228111 C189.24808,24.8681444 189.463597,24.6522556 189.611563,24.3719222 C189.772397,24.0980333 189.843163,23.8080333 189.843163,23.5019222 C189.843163,23.2022556 189.765963,22.9090333 189.611563,22.6254778 C189.453947,22.3419222 189.23843,22.1292556 188.961797,21.9810333 C188.68838,21.8295889 188.395663,21.7554778 188.09973,21.7554778 M188.627263,23.8273667 L189.090463,23.9820333 C189.010047,24.2172556 188.894247,24.4041444 188.730197,24.5298111 C188.559713,24.6619222 188.36028,24.7231444 188.131897,24.7231444 C187.807013,24.7231444 187.546463,24.6135889 187.340597,24.4041444 C187.131513,24.1882556 187.031797,23.8950333 187.031797,23.5244778 C187.031797,23.2795889 187.080047,23.0604778 187.170113,22.8703667 C187.256963,22.6770333 187.392063,22.5352556 187.562547,22.4385889 C187.73303,22.3419222 187.92603,22.2968111 188.141547,22.2968111 C188.36993,22.2968111 188.566147,22.3548111 188.720547,22.4643667 C188.874947,22.5771444 189.000397,22.7511444 189.090463,22.9928111 L188.627263,23.0991444 C188.57258,22.9573667 188.50503,22.8574778 188.41818,22.7994778 C188.334547,22.7318111 188.23483,22.7028111 188.11903,22.7028111 C187.94533,22.7028111 187.807013,22.7672556 187.700863,22.8961444 C187.58828,23.0282556 187.53038,23.2312556 187.53038,23.5083667 C187.53038,23.7822556 187.585063,23.9884778 187.691213,24.1173667 C187.803797,24.2494778 187.929247,24.3139222 188.083647,24.3139222 C188.209097,24.3139222 188.318463,24.2784778 188.414963,24.2011444 C188.50503,24.1302556 188.575797,24.0045889 188.627263,23.8273667" id="Fill-22"></path>
                <path d="M41.91574,124.534056 L56.3682233,32.3720556" id="Fill-28"></path>
            </g>
        </g>
    </g>
</svg>