<?xml version="1.0" encoding="UTF-8"?>
<svg width="217px" height="63px" viewBox="0 0 217 63" version="1.1" xmlns="http://www.w3.org/2000/svg" xmlns:xlink="http://www.w3.org/1999/xlink">
    <!-- Generator: Sketch 42 (36781) - http://www.bohemiancoding.com/sketch -->
    <title>2015_sfdc_dev_user_official_badge_AppExchange_dark_RGB_1.0</title>
    <desc>Created with Sketch.</desc>
    <defs></defs>
    <g id="Symbols" stroke="none" stroke-width="1" fill="none" fill-rule="evenodd">
        <g id="lockups/appexchange" transform="translate(-247.000000, 0.000000)">
            <g id="2015_sfdc_dev_user_official_badge_AppExchange_dark_RGB_1.0" transform="translate(247.000000, 0.000000)">
                <g id="Available_on..._pos">
                    <g id="Group">
                        <path d="M212,63 L5,63 C2.5,63 0.5,61 0.5,58.5 L0.5,4.5 C0.5,2 2.5,0 5,0 L212,0 C214.5,0 216.5,2 216.5,4.5 L216.5,58.5 C216.5,61 214.5,63 212,63 Z" id="Shape" fill-opacity="0.26" fill="#D8D8D8"></path>
                        <g transform="translate(17.000000, 7.000000)" id="Shape">
                            <path d="M29.8,6.1 C32.1,3.7 35.2,2.3 38.7,2.3 C43.3,2.3 47.4,4.9 49.5,8.7 C51.4,7.9 53.4,7.4 55.6,7.4 C63.9,7.4 70.7,14.2 70.7,22.6 C70.7,31 63.9,37.8 55.6,37.8 C54.6,37.8 53.6,37.7 52.6,37.5 C50.7,40.9 47.1,43.2 43,43.2 C41.3,43.2 39.6,42.8 38.2,42.1 C36.3,46.6 31.8,49.8 26.6,49.8 C21.2,49.8 16.6,46.4 14.8,41.6 C14,41.8 13.2,41.9 12.4,41.9 C5.9,41.9 0.7,36.6 0.7,30.1 C0.7,25.7 3,21.9 6.5,19.9 C5.8,18.2 5.4,16.4 5.4,14.5 C5.4,7 11.5,0.9 19,0.9 C23.4,0.7 27.3,2.8 29.8,6.1 Z" fill="#00A1E0"></path>
                            <g transform="translate(10.000000, 17.000000)" fill="#FFFFFF">
                                <path d="M0.8,9.2 L0.8,9.4 C0.9,9.5 1.1,9.6 1.2,9.6 C1.9,10 2.6,10.1 3.3,10.1 C4.7,10.1 5.6,9.3 5.6,8.1 L5.6,8.1 C5.6,7 4.6,6.6 3.6,6.3 L3.5,6.3 C2.8,6.1 2.2,5.9 2.2,5.4 L2.2,5.4 C2.2,5 2.6,4.7 3.1,4.7 C3.7,4.7 4.5,4.9 4.9,5.2 C4.9,5.2 5,5.3 5.1,5.2 C5.1,5.1 5.4,4.5 5.4,4.4 C5.4,4.3 5.4,4.3 5.3,4.2 C4.8,3.9 4,3.6 3.2,3.6 L3.1,3.6 C1.8,3.6 0.9,4.4 0.9,5.5 L0.9,5.5 C0.9,6.7 1.9,7.1 2.9,7.4 L3.1,7.4 C3.8,7.6 4.4,7.8 4.4,8.3 L4.4,8.3 C4.4,8.7 4,9.1 3.4,9.1 C3.2,9.1 2.4,9.1 1.6,8.6 C1.5,8.5 1.4,8.5 1.4,8.5 C1.4,8.5 1.3,8.4 1.2,8.6 L0.8,9.2 Z"></path>
                                <path d="M21.8,9.2 L21.8,9.4 C21.9,9.5 22.1,9.6 22.2,9.6 C22.9,10 23.6,10.1 24.3,10.1 C25.7,10.1 26.6,9.3 26.6,8.1 L26.6,8.1 C26.6,7 25.6,6.6 24.6,6.3 L24.5,6.3 C23.8,6.1 23.2,5.9 23.2,5.4 L23.2,5.4 C23.2,5 23.6,4.7 24.1,4.7 C24.7,4.7 25.5,4.9 25.9,5.2 C25.9,5.2 26,5.3 26.1,5.2 C26.1,5.1 26.4,4.5 26.4,4.4 C26.4,4.3 26.4,4.3 26.3,4.2 C25.8,3.9 25,3.6 24.2,3.6 L24.1,3.6 C22.8,3.6 21.9,4.4 21.9,5.5 L21.9,5.5 C21.9,6.7 22.9,7.1 23.9,7.4 L24.1,7.4 C24.8,7.6 25.4,7.8 25.4,8.3 L25.4,8.3 C25.4,8.7 25,9.1 24.4,9.1 C24.2,9.1 23.4,9.1 22.6,8.6 C22.5,8.5 22.4,8.5 22.4,8.5 C22.4,8.5 22.3,8.4 22.2,8.6 L21.8,9.2 Z"></path>
                                <path d="M37.3,5.5 C37.2,5.1 37,4.8 36.8,4.5 C36.6,4.2 36.2,4 35.9,3.8 C35.5,3.6 35.1,3.5 34.6,3.5 C34.1,3.5 33.7,3.6 33.3,3.8 C32.9,4 32.6,4.2 32.4,4.5 C32.2,4.8 32,5.1 31.9,5.5 C31.8,5.9 31.7,6.3 31.7,6.8 C31.7,7.3 31.8,7.7 31.9,8.1 C32,8.5 32.2,8.8 32.4,9.1 C32.6,9.4 33,9.6 33.3,9.8 C33.7,10 34.1,10.1 34.6,10.1 C35.1,10.1 35.5,10 35.9,9.8 C36.3,9.6 36.6,9.4 36.8,9.1 C37,8.8 37.2,8.5 37.3,8.1 C37.4,7.7 37.5,7.3 37.5,6.8 C37.5,6.3 37.5,5.9 37.3,5.5 M36.1,6.7 C36.1,7.4 36,7.9 35.7,8.3 C35.4,8.7 35.1,8.9 34.5,8.9 C34,8.9 33.6,8.7 33.3,8.3 C33.2,8 33,7.4 33,6.7 C33,6 33.1,5.5 33.4,5.1 C33.6,4.7 34,4.5 34.6,4.5 C35.1,4.5 35.5,4.7 35.8,5.1 C36,5.5 36.1,6.1 36.1,6.7"></path>
                                <path d="M47.2,8.8 C47.2,8.7 47,8.7 47,8.7 C46.8,8.8 46.6,8.8 46.4,8.9 L45.7,8.9 C45.1,8.9 44.7,8.7 44.3,8.4 C44,8.1 43.8,7.5 43.8,6.8 C43.8,6.1 44,5.6 44.3,5.2 C44.6,4.8 45,4.6 45.6,4.6 C46.1,4.6 46.5,4.7 46.9,4.8 C46.9,4.8 47,4.8 47,4.7 C47.1,4.4 47.2,4.2 47.3,3.9 C47.3,3.8 47.3,3.8 47.2,3.8 C47,3.7 46.7,3.6 46.4,3.6 C46.1,3.6 45.8,3.5 45.5,3.5 C45,3.5 44.5,3.6 44.2,3.8 C43.8,4 43.5,4.2 43.2,4.5 C42.9,4.8 42.7,5.1 42.6,5.5 C42.5,5.9 42.4,6.3 42.4,6.8 C42.4,7.8 42.7,8.6 43.2,9.2 C43.7,9.8 44.5,10.1 45.6,10.1 C46.2,10.1 46.8,10 47.3,9.8 C47.3,9.8 47.4,9.8 47.3,9.7 L47.2,8.8 Z"></path>
                                <path d="M53.3,5.2 C53.2,4.8 52.9,4.4 52.8,4.3 C52.5,4 52.3,3.8 52,3.7 C51.7,3.6 51.3,3.5 50.8,3.5 C50.3,3.5 49.8,3.6 49.5,3.8 C49.1,4 48.8,4.2 48.6,4.5 C48.4,4.8 48.2,5.2 48.1,5.6 C48,6 47.9,6.4 47.9,6.9 C47.9,7.4 48,7.8 48.1,8.2 C48.2,8.6 48.4,8.9 48.7,9.2 C49,9.5 49.3,9.7 49.7,9.9 C50.1,10.1 50.6,10.1 51.2,10.1 C52.4,10.1 53,9.8 53.2,9.7 C53.2,9.7 53.3,9.6 53.2,9.5 L52.9,8.8 C52.9,8.7 52.7,8.7 52.7,8.7 C52.4,8.8 52,9 51,9 C50.4,9 49.9,8.8 49.6,8.5 C49.3,8.2 49.2,7.8 49.1,7.2 L53.2,7.2 C53.2,7.2 53.3,7.2 53.3,7.1 C53.4,6.9 53.6,6.1 53.3,5.2 Z M49.3,6.1 C49.4,5.7 49.5,5.4 49.6,5.1 C49.8,4.7 50.2,4.5 50.8,4.5 C51.3,4.5 51.7,4.7 51.9,5.1 C52.1,5.4 52.1,5.7 52.2,6.1 L49.3,6.1 Z"></path>
                                <path d="M20.8,5.2 C20.7,4.8 20.4,4.4 20.3,4.3 C20,4 19.8,3.8 19.5,3.7 C19.2,3.6 18.8,3.5 18.3,3.5 C17.8,3.5 17.3,3.6 17,3.8 C16.6,4 16.3,4.2 16.1,4.5 C15.9,4.8 15.7,5.2 15.6,5.6 C15.5,6 15.4,6.4 15.4,6.9 C15.4,7.4 15.5,7.8 15.6,8.2 C15.7,8.6 15.9,8.9 16.2,9.2 C16.5,9.5 16.8,9.7 17.2,9.9 C17.6,10.1 18.1,10.1 18.7,10.1 C19.9,10.1 20.5,9.8 20.7,9.7 C20.7,9.7 20.8,9.6 20.7,9.5 L20.4,8.8 C20.4,8.7 20.2,8.7 20.2,8.7 C19.9,8.8 19.5,9 18.5,9 C17.9,9 17.4,8.8 17.1,8.5 C16.8,8.2 16.7,7.8 16.6,7.2 L20.7,7.2 C20.7,7.2 20.8,7.2 20.8,7.1 C20.9,6.9 21.1,6.1 20.8,5.2 Z M16.8,6.1 C16.9,5.7 17,5.4 17.1,5.1 C17.3,4.7 17.7,4.5 18.3,4.5 C18.8,4.5 19.2,4.7 19.4,5.1 C19.6,5.4 19.6,5.7 19.7,6.1 L16.8,6.1 Z"></path>
                                <path d="M9.6,5.9 L9,5.9 C8.7,5.9 8.3,5.9 8,6 C7.7,6.1 7.4,6.2 7.2,6.4 C7,6.6 6.8,6.8 6.6,7.1 C6.5,7.4 6.4,7.7 6.4,8 C6.4,8.4 6.5,8.7 6.6,8.9 C6.7,9.2 6.9,9.4 7.1,9.5 C7.3,9.7 7.6,9.8 7.9,9.9 C8.2,10 8.6,10 9,10 C9.4,10 9.8,10 10.2,9.9 C10.6,9.8 11.1,9.7 11.2,9.7 C11.3,9.7 11.5,9.6 11.5,9.6 C11.6,9.6 11.6,9.5 11.6,9.5 L11.6,5.8 C11.6,5 11.4,4.4 11,4 C10.6,3.6 9.9,3.4 9.1,3.4 C8.8,3.4 8.3,3.4 8,3.5 C8,3.5 7.1,3.7 6.7,4 C6.7,4 6.6,4 6.7,4.2 L7,5 C7,5.1 7.1,5.1 7.1,5.1 L7.2,5.1 C8,4.7 9,4.7 9,4.7 C9.4,4.7 9.8,4.8 10,5 C10.2,5.2 10.3,5.4 10.3,6 L10.3,6 C9.9,5.9 9.6,5.9 9.6,5.9 Z M8,8.7 C7.8,8.6 7.8,8.5 7.8,8.5 C7.7,8.4 7.7,8.2 7.7,8 C7.7,7.6 7.8,7.4 8.1,7.2 C8.1,7.2 8.4,6.9 9.3,6.9 C9.9,6.9 10.4,7 10.4,7 L10.4,8.8 L10.4,8.8 C10.4,8.8 9.9,8.9 9.3,8.9 C8.4,9 8,8.7 8,8.7 Z"></path>
                                <path d="M42.4,3.8 C42.4,3.7 42.4,3.7 42.3,3.7 C42.2,3.7 41.9,3.6 41.6,3.6 C41.1,3.6 40.8,3.7 40.6,3.8 C40.3,3.9 40.1,4.1 39.9,4.3 L39.9,3.8 C39.9,3.7 39.9,3.7 39.8,3.7 L38.8,3.7 C38.7,3.7 38.7,3.8 38.7,3.8 L38.7,9.9 C38.7,10 38.8,10 38.8,10 L39.9,10 C40,10 40,9.9 40,9.9 L40,6.9 C40,6.5 40,6.1 40.1,5.8 C40.2,5.5 40.3,5.3 40.5,5.2 C40.6,5.1 40.8,5 41,4.9 C41.2,4.8 41.4,4.8 41.5,4.8 C41.7,4.8 41.9,4.9 41.9,4.9 C42,4.9 42,4.9 42,4.8 C42.1,4.5 42.3,3.9 42.4,3.8 Z"></path>
                                <path d="M32.3,1 C32.2,1 32.1,0.9 31.9,0.9 L31.3,0.9 C30.6,0.9 30,1.1 29.6,1.5 C29.2,1.9 28.9,2.5 28.8,3.3 L28.8,3.6 L27.9,3.6 C27.9,3.6 27.8,3.6 27.8,3.7 L27.6,4.5 C27.6,4.6 27.6,4.6 27.7,4.6 L28.6,4.6 L27.7,9.7 C27.6,10.1 27.5,10.4 27.5,10.7 C27.4,11 27.3,11.1 27.2,11.3 C27.1,11.4 27,11.5 26.8,11.6 C26.7,11.6 26.5,11.7 26.3,11.7 L26,11.7 C25.9,11.7 25.9,11.7 25.8,11.6 C25.8,11.6 25.7,11.6 25.7,11.7 C25.7,11.8 25.4,12.4 25.4,12.5 C25.4,12.6 25.4,12.6 25.5,12.7 C25.6,12.7 25.7,12.8 25.9,12.8 C26.1,12.9 26.3,12.9 26.5,12.9 C26.9,12.9 27.2,12.8 27.5,12.7 C27.8,12.6 28,12.4 28.2,12.2 C28.4,11.9 28.6,11.7 28.7,11.3 C28.8,10.9 29,10.5 29.1,9.9 L30,4.7 L31.3,4.7 C31.3,4.7 31.4,4.7 31.4,4.6 L31.6,3.8 C31.6,3.7 31.6,3.7 31.5,3.7 L30.2,3.7 C30.2,3.7 30.3,3.2 30.4,2.8 C30.5,2.6 30.6,2.5 30.7,2.4 C30.8,2.3 30.9,2.2 31,2.2 C31.1,2.2 31.3,2.1 31.4,2.1 L31.7,2.1 C31.8,2.1 31.9,2.1 31.9,2.2 C32,2.2 32.1,2.2 32.1,2.1 L32.4,1.2 C32.5,1 32.4,1 32.3,1 Z"></path>
                                <path d="M14.2,9.8 C14.2,9.9 14.2,9.9 14.1,9.9 L13,9.9 C12.9,9.9 12.9,9.8 12.9,9.8 L12.9,1.1 C12.9,1 12.9,1 13,1 L14.1,1 C14.2,1 14.2,1.1 14.2,1.1 L14.2,9.8 Z"></path>
                            </g>
                        </g>
                        <g transform="translate(99.000000, 15.000000)" id="Shape" fill="#7C838D">
                            <path d="M8.5,9.8 C8.5,8.7 8.9,8 9.6,7.6 C10.3,7.2 11.5,7 13,7 L13.8,7 L13.8,6.5 C13.8,5.9 13.6,5.4 13.3,5.1 C13,4.8 12.5,4.7 11.8,4.7 C10.9,4.7 10.1,4.9 9.4,5.4 L8.9,4.5 C9.8,3.9 10.8,3.7 11.9,3.7 C13,3.7 13.9,4 14.4,4.5 C14.9,5 15.2,5.8 15.2,6.9 L15.2,10.2 C15.2,10.8 15.2,11.4 15.3,12 L14.1,12 C14,11.5 14,11.2 14,10.9 L14,10.9 C13.7,11.3 13.3,11.7 12.9,11.9 C12.4,12.1 11.9,12.2 11.1,12.2 C10.3,12.2 9.7,12 9.2,11.6 C8.7,11.2 8.5,10.6 8.5,9.8 Z M13.9,9 L13.9,8 L13.2,8 C12.4,8 11.8,8.1 11.3,8.2 C10.8,8.3 10.5,8.5 10.2,8.7 C9.9,8.9 9.9,9.3 9.9,9.8 C9.9,10.3 10,10.6 10.3,10.9 C10.6,11.2 11,11.3 11.5,11.3 C12,11.3 12.5,11.2 12.8,11 C13.2,10.8 13.5,10.5 13.6,10.2 C13.8,9.7 13.9,9.4 13.9,9 Z"></path>
                            <polygon points="20.7 12 19.2 12 16.1 3.9 17.6 3.9 20 10.7 20 10.7 22.3 3.9 23.7 3.9"></polygon>
                            <path d="M24.2,9.8 C24.2,8.7 24.6,8 25.3,7.6 C26.1,7.2 27.2,7 28.7,7 L29.5,7 L29.5,6.5 C29.5,5.9 29.3,5.4 29,5.1 C28.7,4.8 28.2,4.7 27.5,4.7 C26.6,4.7 25.8,4.9 25.1,5.4 L24.6,4.5 C25.5,3.9 26.5,3.7 27.6,3.7 C28.7,3.7 29.6,4 30.1,4.5 C30.6,5 30.9,5.8 30.9,6.9 L30.9,10.2 C30.9,10.8 30.9,11.4 31,12 L29.8,12 C29.7,11.5 29.7,11.2 29.7,10.9 L29.7,10.9 C29.4,11.3 29,11.7 28.6,11.9 C28.1,12.1 27.6,12.2 26.8,12.2 C26,12.2 25.4,12 24.9,11.6 C24.5,11.2 24.2,10.6 24.2,9.8 Z M29.7,9 L29.7,8 L29,8 C28.2,8 27.6,8.1 27.1,8.2 C26.6,8.3 26.3,8.5 26,8.7 C25.8,9 25.7,9.3 25.7,9.8 C25.7,10.3 25.8,10.6 26.1,10.9 C26.4,11.2 26.8,11.3 27.3,11.3 C27.8,11.3 28.3,11.2 28.6,11 C29,10.8 29.3,10.5 29.4,10.2 C29.6,9.7 29.7,9.4 29.7,9 Z"></path>
                            <path d="M33,1.1 C33,0.5 33.3,0.2 33.9,0.2 C34.5,0.2 34.8,0.5 34.8,1.1 C34.8,1.3 34.7,1.5 34.6,1.7 C34.5,1.9 34.2,1.9 33.9,1.9 C33.6,1.9 33.4,1.8 33.2,1.7 C33,1.6 33,1.4 33,1.1 Z M34.5,12 L33.1,12 L33.1,3.9 L34.5,3.9 L34.5,12 Z"></path>
                            <polygon points="38.1 0.7 38.1 12 36.7 12 36.7 0.7"></polygon>
                            <path d="M39.7,9.8 C39.7,8.7 40.1,8 40.8,7.6 C41.6,7.2 42.7,7 44.2,7 L45,7 L45,6.5 C45,5.9 44.8,5.4 44.5,5.1 C44.2,4.8 43.7,4.7 43,4.7 C42.1,4.7 41.3,4.9 40.6,5.4 L40.1,4.5 C41,3.9 42,3.7 43.1,3.7 C44.2,3.7 45.1,4 45.6,4.5 C46.1,5 46.4,5.8 46.4,6.9 L46.4,10.2 C46.4,10.8 46.4,11.4 46.5,12 L45.3,12 C45.2,11.5 45.2,11.2 45.2,10.9 L45.2,10.9 C44.9,11.3 44.5,11.7 44.1,11.9 C43.6,12.1 43.1,12.2 42.3,12.2 C41.5,12.2 40.9,12 40.4,11.6 C40,11.2 39.7,10.6 39.7,9.8 Z M45.2,9 L45.2,8 L44.5,8 C43.7,8 43.1,8.1 42.6,8.2 C42.1,8.3 41.8,8.5 41.5,8.7 C41.2,8.9 41.2,9.3 41.2,9.8 C41.2,10.3 41.3,10.6 41.6,10.9 C41.9,11.2 42.3,11.3 42.8,11.3 C43.3,11.3 43.8,11.2 44.1,11 C44.5,10.8 44.8,10.5 44.9,10.2 C45.1,9.7 45.2,9.4 45.2,9 Z"></path>
                            <path d="M56.4,8 C56.4,8.8 56.3,9.5 56,10.2 C55.7,10.9 55.3,11.4 54.7,11.7 C54.1,12.1 53.4,12.3 52.6,12.3 C51.6,12.3 50.7,11.9 49.9,11.2 L49.8,12 L48.7,12 L48.7,0.7 L50.1,0.7 L50.1,5.1 L50.1,5.1 C50.4,4.7 50.7,4.3 51.2,4.1 C51.7,3.9 52.2,3.7 52.9,3.7 C53.7,3.7 54.3,3.9 54.9,4.3 C55.4,4.7 55.8,5.2 56.1,5.8 C56.3,6.4 56.4,7.2 56.4,8 Z M55,8 C55,7 54.8,6.2 54.4,5.7 C54,5.2 53.4,4.8 52.6,4.8 C52.1,4.8 51.7,4.9 51.3,5.2 C50.9,5.4 50.6,5.8 50.4,6.2 C50.2,6.6 50.1,7 50.1,7.5 L50.1,10.2 C50.5,10.6 50.8,10.8 51.2,11 C51.6,11.2 52,11.3 52.5,11.3 C53.3,11.3 54,11 54.5,10.4 C54.8,9.7 55,8.9 55,8 Z"></path>
                            <polygon points="59.6 0.7 59.6 12 58.2 12 58.2 0.7"></polygon>
                            <path d="M68.7,8.5 L62.7,8.5 C62.8,9.3 63,10 63.5,10.5 C63.9,11 64.6,11.2 65.4,11.2 C65.9,11.2 66.3,11.1 66.7,11 C67.1,10.9 67.5,10.7 67.9,10.4 L68.5,11.3 C68,11.6 67.6,11.9 67,12.1 C66.5,12.3 65.9,12.4 65.3,12.4 C64.1,12.4 63.1,12 62.4,11.2 C61.7,10.4 61.4,9.4 61.4,8 C61.4,7.2 61.5,6.4 61.8,5.8 C62.1,5.2 62.5,4.7 63.1,4.3 C63.7,3.9 64.4,3.8 65.2,3.8 C66.4,3.8 67.3,4.2 67.9,5 C68.5,5.8 68.8,6.8 68.8,8.1 C68.8,8.1 68.8,8.3 68.7,8.5 Z M67.4,7.4 C67.4,6.6 67.2,5.9 66.8,5.4 C66.4,4.9 65.8,4.7 65.1,4.7 C64.3,4.7 63.8,5 63.3,5.5 C62.8,6 62.7,6.6 62.6,7.4 L67.4,7.4 Z"></path>
                            <path d="M82,8 C82,8.8 81.8,9.6 81.5,10.2 C81.2,10.9 80.7,11.4 80.1,11.7 C79.5,12.1 78.8,12.2 77.9,12.2 C77.1,12.2 76.3,12 75.7,11.6 C75.1,11.2 74.6,10.7 74.3,10.1 C74,9.4 73.8,8.7 73.8,7.9 C73.8,6.6 74.2,5.6 74.9,4.8 C75.6,4 76.6,3.6 77.9,3.6 C78.8,3.6 79.5,3.8 80.1,4.1 C80.7,4.4 81.2,5 81.5,5.6 C81.8,6.2 82,7.1 82,8 Z M75.2,8 C75.2,9 75.4,9.8 75.9,10.3 C76.3,10.9 77,11.2 77.9,11.2 C78.8,11.2 79.5,10.9 79.9,10.3 C80.3,9.7 80.6,8.9 80.6,8 C80.6,7 80.4,6.3 79.9,5.7 C79.4,5.1 78.8,4.8 77.9,4.8 C77,4.8 76.3,5.1 75.9,5.7 C75.5,6.2 75.2,7 75.2,8 Z"></path>
                            <path d="M83.7,5.7 C83.7,5.1 83.7,4.5 83.6,3.9 L84.9,3.9 C85,4.2 85,4.6 85,5.1 L85,5.1 C85.3,4.7 85.6,4.4 86.1,4.1 C86.6,3.8 87.1,3.7 87.8,3.7 C88.8,3.7 89.6,4 90.1,4.6 C90.6,5.2 90.8,5.9 90.8,6.8 L90.8,12 L89.4,12 L89.4,7 C89.4,6.3 89.2,5.8 88.9,5.4 C88.6,5 88.1,4.8 87.3,4.8 C86.6,4.8 86,5 85.5,5.5 C85.1,6 84.8,6.6 84.8,7.3 L84.8,12 L83.4,12 L83.4,5.7 L83.7,5.7 Z"></path>
                            <path d="M8.8,26.3 L3.5,26.3 L2.4,29.1 L0.9,29.1 L5.4,17.8 L6.9,17.8 L11.3,29.1 L9.8,29.1 L8.8,26.3 Z M3.9,25.2 L8.4,25.2 L6.1,19.1 L3.9,25.2 Z"></path>
                            <path d="M20.3,25 C20.3,25.8 20.2,26.5 19.9,27.2 C19.6,27.9 19.2,28.4 18.6,28.7 C18,29.1 17.4,29.3 16.6,29.3 C15.6,29.3 14.7,29 13.9,28.3 L13.9,33 L12.5,33 L12.5,22.7 C12.5,22.1 12.5,21.5 12.4,20.9 L13.7,20.9 C13.8,21.3 13.8,21.7 13.8,22.1 L13.8,22.1 C14.1,21.7 14.4,21.3 14.9,21 C15.4,20.7 16,20.6 16.7,20.6 C17.5,20.6 18.1,20.8 18.7,21.2 C19.3,21.6 19.6,22.1 19.9,22.7 C20.2,23.4 20.3,24.2 20.3,25 Z M18.9,25 C18.9,24 18.7,23.2 18.3,22.7 C17.9,22.1 17.3,21.8 16.5,21.8 C16,21.8 15.6,21.9 15.2,22.2 C14.8,22.5 14.5,22.8 14.3,23.2 C14.1,23.6 14,24 14,24.5 L14,27.2 C14.4,27.6 14.7,27.8 15.1,28 C15.5,28.2 15.9,28.3 16.4,28.3 C17.3,28.3 17.9,28 18.4,27.4 C18.9,26.8 18.9,25.9 18.9,25 Z"></path>
                            <path d="M29.8,25 C29.8,25.8 29.7,26.5 29.4,27.2 C29.1,27.9 28.7,28.4 28.1,28.7 C27.5,29.1 26.9,29.3 26.1,29.3 C25.1,29.3 24.2,29 23.4,28.3 L23.4,33 L22,33 L22,22.7 C22,22.1 22,21.5 21.9,20.9 L23.2,20.9 C23.3,21.3 23.3,21.7 23.3,22.1 L23.3,22.1 C23.6,21.7 23.9,21.3 24.4,21 C24.9,20.7 25.5,20.6 26.2,20.6 C27,20.6 27.6,20.8 28.2,21.2 C28.8,21.6 29.1,22.1 29.4,22.7 C29.7,23.4 29.8,24.2 29.8,25 Z M28.4,25 C28.4,24 28.2,23.2 27.8,22.7 C27.4,22.1 26.8,21.8 26,21.8 C25.5,21.8 25.1,21.9 24.7,22.2 C24.3,22.5 24,22.8 23.8,23.2 C23.6,23.6 23.5,24 23.5,24.5 L23.5,27.2 C23.9,27.6 24.2,27.8 24.6,28 C25,28.2 25.4,28.3 25.9,28.3 C26.8,28.3 27.4,28 27.9,27.4 C28.4,26.8 28.4,25.9 28.4,25 Z"></path>
                            <polygon points="38.6 18.9 33.1 18.9 33.1 22.7 37.9 22.7 37.9 23.8 33.1 23.8 33.1 27.9 38.8 27.9 38.8 29 31.7 29 31.7 17.7 38.6 17.7"></polygon>
                            <polygon points="47.7 29 46.1 29 43.6 25.6 41.2 29 39.6 29 42.8 24.7 40 20.8 41.6 20.8 43.8 23.9 45.9 20.8 47.4 20.8 44.6 24.7"></polygon>
                            <path d="M52,20.7 C52.5,20.7 53,20.8 53.5,20.9 C54,21 54.4,21.3 54.7,21.5 L54.2,22.4 C53.6,21.9 52.9,21.7 52,21.7 C51.1,21.7 50.5,22 50,22.6 C49.6,23.2 49.3,23.9 49.3,24.9 C49.3,25.8 49.5,26.6 50,27.2 C50.4,27.8 51.1,28.1 52,28.1 C52.7,28.1 53.5,27.9 54.2,27.4 L54.7,28.4 C53.9,29 53,29.3 51.9,29.3 C51,29.3 50.2,29.1 49.6,28.7 C49,28.3 48.6,27.8 48.3,27.1 C48,26.4 47.9,25.8 47.9,25 C47.9,23.7 48.3,22.7 49,21.9 C49.8,21.1 50.7,20.7 52,20.7 Z"></path>
                            <path d="M56.1,17.7 L57.5,17.7 L57.5,22 L57.5,22 C57.8,21.6 58.1,21.3 58.6,21 C59.1,20.8 59.6,20.6 60.3,20.6 C61.3,20.6 62.1,20.9 62.6,21.5 C63.1,22.1 63.3,22.8 63.3,23.7 L63.3,29 L61.9,29 L61.9,24 C61.9,23.3 61.7,22.8 61.4,22.4 C61.1,22 60.6,21.8 59.8,21.8 C59.1,21.8 58.5,22 58,22.5 C57.5,23 57.3,23.6 57.3,24.3 L57.3,29 L55.9,29 L55.9,17.7 L56.1,17.7 Z"></path>
                            <path d="M64.8,26.8 C64.8,25.7 65.2,25 65.9,24.6 C66.7,24.2 67.8,24 69.3,24 L70.1,24 L70.1,23.5 C70.1,22.9 69.9,22.4 69.6,22.1 C69.3,21.8 68.8,21.7 68.1,21.7 C67.2,21.7 66.4,21.9 65.7,22.4 L65.2,21.5 C66.1,20.9 67.1,20.7 68.2,20.7 C69.3,20.7 70.2,21 70.7,21.5 C71.2,22 71.5,22.8 71.5,23.9 L71.5,27.2 C71.5,27.8 71.5,28.4 71.6,29 L70.4,29 C70.3,28.5 70.3,28.2 70.3,27.9 L70.3,27.9 C70,28.3 69.6,28.7 69.2,28.9 C68.7,29.1 68.2,29.2 67.4,29.2 C66.6,29.2 66,29 65.5,28.6 C65,28.2 64.8,27.6 64.8,26.8 Z M70.2,26 L70.2,25 L69.5,25 C68.7,25 68.1,25.1 67.6,25.2 C67.1,25.3 66.8,25.5 66.5,25.7 C66.2,25.9 66.2,26.3 66.2,26.8 C66.2,27.3 66.3,27.6 66.6,27.9 C66.9,28.1 67.3,28.3 67.8,28.3 C68.3,28.3 68.8,28.2 69.1,28 C69.5,27.8 69.8,27.5 69.9,27.2 C70.2,26.7 70.2,26.4 70.2,26 Z"></path>
                            <path d="M73.7,22.7 C73.7,22.1 73.7,21.5 73.6,20.9 L74.9,20.9 C75,21.2 75,21.6 75,22.1 L75,22.1 C75.3,21.7 75.6,21.4 76.1,21.1 C76.6,20.9 77.1,20.7 77.8,20.7 C78.8,20.7 79.6,21 80.1,21.6 C80.6,22.2 80.8,22.9 80.8,23.8 L80.8,29 L79.4,29 L79.4,24 C79.4,23.3 79.2,22.8 78.9,22.4 C78.6,22 78.1,21.8 77.3,21.8 C76.6,21.8 76,22 75.5,22.5 C75.1,23 74.8,23.6 74.8,24.3 L74.8,29 L73.4,29 L73.4,22.7 L73.7,22.7 Z"></path>
                            <path d="M82,30.7 C82,30.2 82.1,29.8 82.4,29.5 C82.7,29.2 83.1,28.8 83.7,28.5 C83.2,28.3 82.9,27.9 82.9,27.4 C82.9,27.1 83,26.9 83.2,26.6 C83.4,26.3 83.7,26.2 84.1,26.1 C83.6,25.9 83.2,25.6 82.9,25.2 C82.6,24.8 82.5,24.3 82.5,23.6 C82.5,22.7 82.8,22 83.4,21.5 C84,21 84.8,20.7 85.9,20.7 L86.6,20.7 C86.8,20.7 87,20.8 87.3,20.9 L90.1,20.9 L90.1,22 L88.3,21.8 C88.6,22 88.8,22.2 88.9,22.6 C89.1,22.9 89.1,23.3 89.1,23.8 C89.1,24.7 88.8,25.3 88.2,25.8 C87.6,26.3 86.8,26.5 85.7,26.5 C85.2,26.5 84.7,26.6 84.4,26.7 C84.1,26.8 83.9,27 83.9,27.3 C83.9,27.7 84.4,28 85.5,28 C87,28 88.1,28.2 88.8,28.6 C89.5,29 89.8,29.6 89.8,30.3 C89.8,31.2 89.4,31.9 88.7,32.4 C87.9,32.9 86.9,33.2 85.5,33.2 C84.3,33.2 83.4,33 82.8,32.6 C82.2,32.2 82,31.5 82,30.7 Z M88.7,30.4 C88.7,30.1 88.6,29.8 88.3,29.6 C88.1,29.4 87.7,29.2 87.1,29.1 C86.5,29 85.7,28.9 84.7,28.9 C84.2,29.1 83.9,29.4 83.7,29.6 C83.5,29.9 83.4,30.2 83.4,30.5 C83.4,31.5 84.2,32 85.8,32 C86.8,32 87.5,31.9 88,31.6 C88.4,31.4 88.7,31 88.7,30.4 Z M88,23.6 C88,23 87.8,22.5 87.5,22.2 C87.1,21.8 86.6,21.7 85.9,21.7 C85.3,21.7 84.8,21.9 84.4,22.2 C84,22.5 83.8,23 83.8,23.6 C83.8,24.2 84,24.7 84.3,25 C84.6,25.3 85.2,25.5 85.9,25.5 C87.3,25.5 88,24.9 88,23.6 Z"></path>
                            <path d="M98.3,25.5 L92.3,25.5 C92.4,26.3 92.6,27 93.1,27.5 C93.5,28 94.2,28.2 95,28.2 C95.5,28.2 95.9,28.1 96.3,28 C96.7,27.9 97.1,27.7 97.5,27.4 L98.1,28.3 C97.6,28.6 97.2,28.9 96.6,29.1 C96.1,29.3 95.5,29.4 94.9,29.4 C93.7,29.4 92.7,29 92,28.2 C91.3,27.4 91,26.4 91,25 C91,24.2 91.1,23.4 91.4,22.8 C91.7,22.2 92.1,21.7 92.7,21.3 C93.3,20.9 94,20.8 94.8,20.8 C96,20.8 96.9,21.2 97.5,22 C98.1,22.8 98.4,23.8 98.4,25.1 C98.3,25.1 98.3,25.3 98.3,25.5 Z M97,24.4 C97,23.6 96.8,22.9 96.4,22.4 C96,21.9 95.4,21.7 94.7,21.7 C93.9,21.7 93.4,22 92.9,22.5 C92.5,23 92.3,23.6 92.2,24.4 L97,24.4 L97,24.4 Z"></path>
                        </g>
                    </g>
                </g>
            </g>
        </g>
    </g>
</svg>