<?xml version="1.0" encoding="UTF-8"?>
<svg width="166px" height="44px" viewBox="0 0 166 44" version="1.1" xmlns="http://www.w3.org/2000/svg" xmlns:xlink="http://www.w3.org/1999/xlink">
    <!-- Generator: Sketch 42 (36781) - http://www.bohemiancoding.com/sketch -->
    <title>logo/precursive-greenish</title>
    <desc>Created with Sketch.</desc>
    <defs>
        <filter x="-50%" y="-50%" width="200%" height="200%" filterUnits="objectBoundingBox" id="filter-1">
            <feOffset dx="0" dy="0.1" in="SourceAlpha" result="shadowOffsetOuter1"></feOffset>
            <feGaussianBlur stdDeviation="0.05" in="shadowOffsetOuter1" result="shadowBlurOuter1"></feGaussianBlur>
            <feColorMatrix values="0 0 0 0 0   0 0 0 0 0   0 0 0 0 0  0 0 0 0.5 0" type="matrix" in="shadowBlurOuter1" result="shadowMatrixOuter1"></feColorMatrix>
            <feMerge>
                <feMergeNode in="shadowMatrixOuter1"></feMergeNode>
                <feMergeNode in="SourceGraphic"></feMergeNode>
            </feMerge>
        </filter>
        <polygon id="path-2" points="3.7947076e-20 0.390833333 3.7947076e-20 32.4102778 24.5336009 32.4102778 24.5336009 0.390833333 0 0.390833333"></polygon>
        <polygon id="path-4" points="4.0256 4.45333333 4.0256 0.692222222 0.23888 0.692222222 0.23888 4.45333333 4.0256 4.45333333"></polygon>
    </defs>
    <g id="Symbols" stroke="none" stroke-width="1" fill="none" fill-rule="evenodd">
        <g id="footer" transform="translate(-187.000000, -107.000000)">
            <g id="Footer" transform="translate(184.000000, 106.000000)">
                <g id="logo/precursive-greenish" transform="translate(3.000000, 0.000000)">
                    <g id="Page-1">
                        <g filter="url(#filter-1)">
                            <g id="Group-3" transform="translate(0.000000, 6.356944)">
                                <mask id="mask-3" fill="white">
                                    <use xlink:href="#path-2"></use>
                                </mask>
                                <g id="Clip-2"></g>
                                <path d="M10.58064,2.92972222 C12.17944,1.34638889 14.51184,0.390833333 16.69584,0.390833333 C22.53104,0.390833333 25.23304,5.80472222 24.37904,11.1769444 C23.48304,16.7547222 19.17944,22.1686111 13.09224,22.1686111 C10.99504,22.1686111 8.91744,21.2547222 8.00744,19.5852778 L7.92344,19.5852778 L5.87664,32.4102778 L-0.00056,32.4102778 L5.00584,1.0575 L10.88304,1.0575 L10.58064,2.92972222 Z M18.40384,11.2575 C18.84064,8.51027778 17.46584,5.55472222 14.44464,5.55472222 C11.42344,5.55472222 9.10504,8.51027778 8.66544,11.2575 C8.22864,14.0102778 9.59504,17.0047222 12.61624,17.0047222 C15.64024,17.0047222 17.96424,14.0102778 18.40384,11.2575 L18.40384,11.2575 Z" id="Fill-1" fill="#343A4A" mask="url(#mask-3)"></path>
                            </g>
                            <path d="M33.06828,9.5375 L33.15228,9.5375 C34.61388,7.74583333 36.53468,6.74861111 38.71868,6.74861111 C39.55308,6.74861111 40.36228,6.95416667 41.07348,7.24583333 L39.49428,12.6597222 C38.86148,12.1597222 38.06068,11.9097222 37.18148,11.9097222 C33.10748,11.9097222 32.11908,15.4902778 31.61228,18.6569444 L30.14508,27.8569444 L24.26788,27.8569444 L27.52988,7.41527778 L33.40708,7.41527778 L33.06828,9.5375 Z" id="Fill-4" fill="#343A4A"></path>
                            <path d="M68.61932,18.0486111 L66.85252,29.1263889 C66.47732,31.4569444 66.41012,34.2458333 69.38932,34.2458333 C72.37412,34.2458333 73.19452,31.4569444 73.56692,29.1263889 L75.33372,18.0486111 L81.21092,18.0486111 L79.29292,30.0847222 C78.34092,36.0347222 74.73452,39.1597222 68.60812,39.1597222 C62.47892,39.1597222 59.87212,36.0347222 60.82412,30.0847222 L62.74212,18.0486111 L68.61932,18.0486111 Z" id="Fill-6" fill="#343A4A"></path>
                            <path d="M89.27464,20.1738889 L89.35864,20.1738889 C90.82584,18.3822222 92.74384,17.385 94.93064,17.385 C95.76504,17.385 96.57144,17.5905556 97.28264,17.8822222 L95.70624,23.2961111 C95.06784,22.7933333 94.26704,22.5461111 93.39064,22.5461111 C89.31944,22.5461111 88.32824,26.1294444 87.82144,29.2933333 L86.35424,38.4933333 L80.47704,38.4933333 L83.73904,18.0461111 L89.61344,18.0461111 L89.27464,20.1738889 Z" id="Fill-8" fill="#343A4A"></path>
                            <path d="M108.1556,22.8811111 C107.4444,22.0866667 106.4532,21.4644444 105.2772,21.4644444 C104.3112,21.4644444 103.222,22.2144444 103.068,23.2116667 C102.8272,24.7144444 104.9048,25.1283333 106.8564,26.045 C108.85,26.9616667 110.7232,28.3783333 110.1576,31.9144444 C109.4324,36.4561111 105.308,39.1616667 100.9848,39.1616667 C98.2128,39.1616667 95.7264,37.9116667 94.2676,35.7477778 L97.5016,32.2894444 C98.4368,33.5394444 99.7724,34.6644444 101.4916,34.6644444 C102.7908,34.6644444 103.9836,33.7894444 104.1936,32.4588889 C104.482,30.6644444 102.4912,30.2505556 100.5732,29.3727778 C98.6552,28.5005556 96.7932,27.2922222 97.3168,24.0061111 C97.9272,20.1727778 101.0604,17.3811111 104.9188,17.3811111 C107.1028,17.3811111 109.7684,18.0477778 111.216,19.5061111 L108.1556,22.8811111 Z" id="Fill-10" fill="#343A4A"></path>
                            <polygon id="Fill-12" fill="#343A4A" points="116.88376 38.4966667 111.00376 38.4966667 114.26856 18.0466667 120.14576 18.0466667"></polygon>
                            <path d="M122.05984,10.6497222 C121.75464,12.5663889 119.95704,14.1080556 118.02504,14.1080556 C116.09304,14.1080556 114.78544,12.5663889 115.09344,10.6497222 C115.39304,8.7775 117.20184,7.19416667 119.12544,7.19416667 C121.06304,7.19416667 122.35944,8.7775 122.05984,10.6497222" id="Fill-14" fill="#343A4A"></path>
                            <polygon id="Fill-16" fill="#343A4A" points="131.1926 29.5855556 137.2714 18.0466667 143.6918 18.0466667 130.8762 38.9105556 127.855 38.9105556 121.737 18.0466667 128.205 18.0466667"></polygon>
                            <path d="M146.85524,29.2111111 C146.44084,31.7916667 146.97844,34.7055556 150.04444,34.7055556 C151.97644,34.7055556 153.37924,33.5388889 154.43764,31.9166667 L159.71004,32.7888889 C157.62964,36.8722222 153.65924,39.1611111 149.33604,39.1611111 C142.95204,39.1611111 139.76844,34.6638889 140.75964,28.4611111 C141.74804,22.2555556 145.84444,17.3833333 152.51124,17.3833333 C159.27604,17.3833333 161.50484,22.3388889 160.52484,28.5 L160.41004,29.2111111 L146.85524,29.2111111 Z M155.44284,25.5888889 C155.48764,23.5055556 154.46844,21.4638889 152.20324,21.4638889 C149.84844,21.4638889 148.23004,23.4611111 147.59724,25.5888889 L155.44284,25.5888889 Z" id="Fill-18" fill="#343A4A"></path>
                            <path d="M56.09576,17.4936111 C54.34016,17.4936111 52.66016,17.8852778 51.12856,18.5797222 L53.93416,0.996388889 L52.59296,0.996388889 L51.67176,6.76583333 C51.50376,6.7575 51.33856,6.74638889 51.16496,6.74638889 C44.49256,6.74638889 40.39896,11.6186111 39.40776,17.8213889 C38.41936,24.0269444 41.60296,28.5241667 47.98416,28.5241667 C48.05696,28.5241667 48.12696,28.5213889 48.19976,28.5158333 L46.06616,41.8908333 L45.71616,44.0936111 L47.05736,44.0936111 L47.41016,41.8908333 L47.98976,38.2602778 C49.22176,38.9047222 50.68056,39.2713889 52.32696,39.2713889 C54.13296,39.2713889 55.87176,38.8991667 57.60776,38.0213889 L58.50376,32.4019444 C57.26616,33.5686111 55.67296,34.3630556 54.07416,34.3630556 C50.71696,34.3630556 49.08736,31.6936111 49.59976,28.4852778 C50.07856,25.4880556 52.45856,22.4075 55.77656,22.4075 C57.57696,22.4075 58.71936,23.1547222 59.77776,24.4075 L60.67656,18.7825 C59.38856,17.9102778 57.73656,17.4936111 56.09576,17.4936111 M50.84856,10.8297222 C50.91016,10.8297222 50.96616,10.8352778 51.02216,10.8380556 L50.36416,14.9519444 L46.24816,14.9519444 C46.88096,12.8241667 48.49936,10.8297222 50.84856,10.8297222 M48.69256,24.0741667 C45.62936,24.0741667 45.08616,21.1547222 45.49776,18.5741667 L49.78736,18.5741667 L49.33096,21.4436111 L48.91376,24.0602778 C48.84096,24.0602778 48.76816,24.0741667 48.69256,24.0741667" id="Fill-20" fill="#343A4A"></path>
                            <g id="Group-24" transform="translate(161.600000, 16.690278)">
                                <mask id="mask-5" fill="white">
                                    <use xlink:href="#path-4"></use>
                                </mask>
                                <g id="Clip-23"></g>
                                <path d="M2.13448,0.692222222 C2.45928,0.692222222 2.77008,0.772777778 3.06968,0.936666667 C3.36368,1.09777778 3.59888,1.33111111 3.77248,1.63111111 C3.94608,1.92833333 4.02728,2.245 4.02728,2.57 C4.02728,2.89777778 3.94888,3.21166667 3.77808,3.50888889 C3.60728,3.80333333 3.37768,4.03666667 3.08088,4.20333333 C2.78128,4.36722222 2.46488,4.45333333 2.13448,4.45333333 C1.80408,4.45333333 1.49048,4.36722222 1.19088,4.20333333 C0.89408,4.03666667 0.66168,3.80333333 0.49368,3.50888889 C0.32848,3.21166667 0.23888,2.89777778 0.23888,2.57 C0.23888,2.245 0.32848,1.92833333 0.49648,1.63111111 C0.67008,1.33111111 0.90248,1.09777778 1.20208,0.936666667 C1.49888,0.772777778 1.81248,0.692222222 2.13448,0.692222222 M2.13448,1.06444444 C1.87128,1.06444444 1.62488,1.12833333 1.38408,1.25888889 C1.14608,1.38666667 0.95568,1.57 0.81848,1.81166667 C0.68128,2.05333333 0.61128,2.30888889 0.61128,2.57 C0.61128,2.83388889 0.68128,3.08388889 0.81568,3.32 C0.95008,3.56166667 1.13768,3.74777778 1.38128,3.88111111 C1.61928,4.01444444 1.86848,4.07833333 2.13448,4.07833333 C2.39768,4.07833333 2.65248,4.01444444 2.89048,3.88111111 C3.13408,3.74777778 3.32168,3.56166667 3.45048,3.32 C3.59048,3.08388889 3.65208,2.83388889 3.65208,2.57 C3.65208,2.31166667 3.58488,2.05888889 3.45048,1.81444444 C3.31328,1.57 3.12568,1.38666667 2.88488,1.25888889 C2.64688,1.12833333 2.39208,1.06444444 2.13448,1.06444444 M2.59368,2.85055556 L2.99688,2.98388889 C2.92688,3.18666667 2.82608,3.34777778 2.68328,3.45611111 C2.53488,3.57 2.36128,3.62277778 2.16248,3.62277778 C1.87968,3.62277778 1.65288,3.52833333 1.47368,3.34777778 C1.29168,3.16166667 1.20488,2.90888889 1.20488,2.58944444 C1.20488,2.37833333 1.24688,2.18944444 1.32528,2.02555556 C1.40088,1.85888889 1.51848,1.73666667 1.66688,1.65333333 C1.81528,1.57 1.98328,1.53111111 2.17088,1.53111111 C2.36968,1.53111111 2.54048,1.58111111 2.67488,1.67555556 C2.80928,1.77277778 2.91848,1.92277778 2.99688,2.13111111 L2.59368,2.22277778 C2.54608,2.10055556 2.48728,2.01444444 2.41168,1.96444444 C2.33888,1.90611111 2.25208,1.88111111 2.15128,1.88111111 C2.00008,1.88111111 1.87968,1.93666667 1.78728,2.04777778 C1.68928,2.16166667 1.63888,2.33666667 1.63888,2.57555556 C1.63888,2.81166667 1.68648,2.98944444 1.77888,3.10055556 C1.87688,3.21444444 1.98608,3.27 2.12048,3.27 C2.22968,3.27 2.32488,3.23944444 2.40888,3.17277778 C2.48728,3.11166667 2.54888,3.00333333 2.59368,2.85055556" id="Fill-22" fill="#343A4A" mask="url(#mask-5)"></path>
                            </g>
                            <path d="M36.48624,106.356944 L49.06664,26.9069444" id="Fill-28" fill="#343A4A"></path>
                        </g>
                    </g>
                </g>
            </g>
        </g>
    </g>
</svg>