<?xml version="1.0" encoding="UTF-8"?>
<svg width="55px" height="39px" viewBox="0 0 55 39" version="1.1" xmlns="http://www.w3.org/2000/svg" xmlns:xlink="http://www.w3.org/1999/xlink">
    <!-- Generator: Sketch Beta 42 (36780) - http://www.bohemiancoding.com/sketch -->
    <title>salesforce-logo-sml</title>
    <desc>Created with Sketch Beta.</desc>
    <defs></defs>
    <g id="Symbols" stroke="none" stroke-width="1" fill="none" fill-rule="evenodd">
        <g id="cta/masthead" transform="translate(-229.000000, -12.042889)">
            <g id="Group-7">
                <g id="salesforce-logo-sml" transform="translate(228.810000, 11.500000)">
                    <path d="M23.244,4.758 C25.038,2.886 27.456,1.794 30.186,1.794 C33.774,1.794 36.972,3.822 38.61,6.786 C40.092,6.162 41.652,5.772 43.368,5.772 C49.842,5.772 55.146,11.076 55.146,17.628 C55.146,24.18 49.842,29.484 43.368,29.484 C42.588,29.484 41.808,29.406 41.028,29.25 C39.546,31.902 36.738,33.696 33.54,33.696 C32.214,33.696 30.888,33.384 29.796,32.838 C28.314,36.348 24.804,38.844 20.748,38.844 C16.536,38.844 12.948,36.192 11.544,32.448 C10.92,32.604 10.296,32.682 9.672,32.682 C4.602,32.682 0.546,28.548 0.546,23.478 C0.546,20.046 2.34,17.082 5.07,15.522 C4.524,14.196 4.212,12.792 4.212,11.31 C4.212,5.46 8.97,0.702 14.82,0.702 C18.252,0.546 21.294,2.184 23.244,4.758 Z" id="Shape" fill="#00A1E0"></path>
                    <g id="Group" transform="translate(7.800000, 13.260000)" fill="#FFFFFF">
                        <path d="M0.624,7.176 L0.624,7.332 C0.702,7.41 0.858,7.488 0.936,7.488 C1.482,7.8 2.028,7.878 2.574,7.878 C3.666,7.878 4.368,7.254 4.368,6.318 L4.368,6.318 C4.368,5.46 3.588,5.148 2.808,4.914 L2.73,4.914 C2.184,4.758 1.716,4.602 1.716,4.212 L1.716,4.212 C1.716,3.9 2.028,3.666 2.418,3.666 C2.886,3.666 3.51,3.822 3.822,4.056 C3.822,4.056 3.9,4.134 3.978,4.056 C3.978,3.978 4.212,3.51 4.212,3.432 C4.212,3.354 4.212,3.354 4.134,3.276 C3.744,3.042 3.12,2.808 2.496,2.808 L2.418,2.808 C1.404,2.808 0.702,3.432 0.702,4.29 L0.702,4.29 C0.702,5.226 1.482,5.538 2.262,5.772 L2.418,5.772 C2.964,5.928 3.432,6.084 3.432,6.474 L3.432,6.474 C3.432,6.786 3.12,7.098 2.652,7.098 C2.496,7.098 1.872,7.098 1.248,6.708 C1.17,6.63 1.092,6.63 1.092,6.63 C1.092,6.63 1.014,6.552 0.936,6.708 L0.624,7.176 Z" id="Shape"></path>
                        <path d="M17.004,7.176 L17.004,7.332 C17.082,7.41 17.238,7.488 17.316,7.488 C17.862,7.8 18.408,7.878 18.954,7.878 C20.046,7.878 20.748,7.254 20.748,6.318 L20.748,6.318 C20.748,5.46 19.968,5.148 19.188,4.914 L19.11,4.914 C18.564,4.758 18.096,4.602 18.096,4.212 L18.096,4.212 C18.096,3.9 18.408,3.666 18.798,3.666 C19.266,3.666 19.89,3.822 20.202,4.056 C20.202,4.056 20.28,4.134 20.358,4.056 C20.358,3.978 20.592,3.51 20.592,3.432 C20.592,3.354 20.592,3.354 20.514,3.276 C20.124,3.042 19.5,2.808 18.876,2.808 L18.798,2.808 C17.784,2.808 17.082,3.432 17.082,4.29 L17.082,4.29 C17.082,5.226 17.862,5.538 18.642,5.772 L18.798,5.772 C19.344,5.928 19.812,6.084 19.812,6.474 L19.812,6.474 C19.812,6.786 19.5,7.098 19.032,7.098 C18.876,7.098 18.252,7.098 17.628,6.708 C17.55,6.63 17.472,6.63 17.472,6.63 C17.472,6.63 17.394,6.552 17.316,6.708 L17.004,7.176 Z" id="Shape"></path>
                        <path d="M29.094,4.29 C29.016,3.978 28.86,3.744 28.704,3.51 C28.548,3.276 28.236,3.12 28.002,2.964 C27.69,2.808 27.378,2.73 26.988,2.73 C26.598,2.73 26.286,2.808 25.974,2.964 C25.662,3.12 25.428,3.276 25.272,3.51 C25.116,3.744 24.96,3.978 24.882,4.29 C24.804,4.602 24.726,4.914 24.726,5.304 C24.726,5.694 24.804,6.006 24.882,6.318 C24.96,6.63 25.116,6.864 25.272,7.098 C25.428,7.332 25.74,7.488 25.974,7.644 C26.286,7.8 26.598,7.878 26.988,7.878 C27.378,7.878 27.69,7.8 28.002,7.644 C28.314,7.488 28.548,7.332 28.704,7.098 C28.86,6.864 29.016,6.63 29.094,6.318 C29.172,6.006 29.25,5.694 29.25,5.304 C29.25,4.914 29.25,4.602 29.094,4.29 M28.158,5.226 C28.158,5.772 28.08,6.162 27.846,6.474 C27.612,6.786 27.378,6.942 26.91,6.942 C26.52,6.942 26.208,6.786 25.974,6.474 C25.896,6.24 25.74,5.772 25.74,5.226 C25.74,4.68 25.818,4.29 26.052,3.978 C26.208,3.666 26.52,3.51 26.988,3.51 C27.378,3.51 27.69,3.666 27.924,3.978 C28.08,4.29 28.158,4.758 28.158,5.226" id="Shape"></path>
                        <path d="M36.816,6.864 C36.816,6.786 36.66,6.786 36.66,6.786 C36.504,6.864 36.348,6.864 36.192,6.942 L35.646,6.942 C35.178,6.942 34.866,6.786 34.554,6.552 C34.32,6.318 34.164,5.85 34.164,5.304 C34.164,4.758 34.32,4.368 34.554,4.056 C34.788,3.744 35.1,3.588 35.568,3.588 C35.958,3.588 36.27,3.666 36.582,3.744 C36.582,3.744 36.66,3.744 36.66,3.666 C36.738,3.432 36.816,3.276 36.894,3.042 C36.894,2.964 36.894,2.964 36.816,2.964 C36.66,2.886 36.426,2.808 36.192,2.808 C35.958,2.808 35.724,2.73 35.49,2.73 C35.1,2.73 34.71,2.808 34.476,2.964 C34.164,3.12 33.93,3.276 33.696,3.51 C33.462,3.744 33.306,3.978 33.228,4.29 C33.15,4.602 33.072,4.914 33.072,5.304 C33.072,6.084 33.306,6.708 33.696,7.176 C34.086,7.644 34.71,7.878 35.568,7.878 C36.036,7.878 36.504,7.8 36.894,7.644 C36.894,7.644 36.972,7.644 36.894,7.566 L36.816,6.864 Z" id="Shape"></path>
                        <path d="M41.574,4.056 C41.496,3.744 41.262,3.432 41.184,3.354 C40.95,3.12 40.794,2.964 40.56,2.886 C40.326,2.808 40.014,2.73 39.624,2.73 C39.234,2.73 38.844,2.808 38.61,2.964 C38.298,3.12 38.064,3.276 37.908,3.51 C37.752,3.744 37.596,4.056 37.518,4.368 C37.44,4.68 37.362,4.992 37.362,5.382 C37.362,5.772 37.44,6.084 37.518,6.396 C37.596,6.708 37.752,6.942 37.986,7.176 C38.22,7.41 38.454,7.566 38.766,7.722 C39.078,7.878 39.468,7.878 39.936,7.878 C40.872,7.878 41.34,7.644 41.496,7.566 C41.496,7.566 41.574,7.488 41.496,7.41 L41.262,6.864 C41.262,6.786 41.106,6.786 41.106,6.786 C40.872,6.864 40.56,7.02 39.78,7.02 C39.312,7.02 38.922,6.864 38.688,6.63 C38.454,6.396 38.376,6.084 38.298,5.616 L41.496,5.616 C41.496,5.616 41.574,5.616 41.574,5.538 C41.652,5.382 41.808,4.758 41.574,4.056 Z M38.454,4.758 C38.532,4.446 38.61,4.212 38.688,3.978 C38.844,3.666 39.156,3.51 39.624,3.51 C40.014,3.51 40.326,3.666 40.482,3.978 C40.638,4.212 40.638,4.446 40.716,4.758 L38.454,4.758 Z" id="Shape"></path>
                        <path d="M16.224,4.056 C16.146,3.744 15.912,3.432 15.834,3.354 C15.6,3.12 15.444,2.964 15.21,2.886 C14.976,2.808 14.664,2.73 14.274,2.73 C13.884,2.73 13.494,2.808 13.26,2.964 C12.948,3.12 12.714,3.276 12.558,3.51 C12.402,3.744 12.246,4.056 12.168,4.368 C12.09,4.68 12.012,4.992 12.012,5.382 C12.012,5.772 12.09,6.084 12.168,6.396 C12.246,6.708 12.402,6.942 12.636,7.176 C12.87,7.41 13.104,7.566 13.416,7.722 C13.728,7.878 14.118,7.878 14.586,7.878 C15.522,7.878 15.99,7.644 16.146,7.566 C16.146,7.566 16.224,7.488 16.146,7.41 L15.912,6.864 C15.912,6.786 15.756,6.786 15.756,6.786 C15.522,6.864 15.21,7.02 14.43,7.02 C13.962,7.02 13.572,6.864 13.338,6.63 C13.104,6.396 13.026,6.084 12.948,5.616 L16.146,5.616 C16.146,5.616 16.224,5.616 16.224,5.538 C16.302,5.382 16.458,4.758 16.224,4.056 Z M13.104,4.758 C13.182,4.446 13.26,4.212 13.338,3.978 C13.494,3.666 13.806,3.51 14.274,3.51 C14.664,3.51 14.976,3.666 15.132,3.978 C15.288,4.212 15.288,4.446 15.366,4.758 L13.104,4.758 Z" id="Shape"></path>
                        <path d="M7.488,4.602 L7.02,4.602 C6.786,4.602 6.474,4.602 6.24,4.68 C6.006,4.758 5.772,4.836 5.616,4.992 C5.46,5.148 5.304,5.304 5.148,5.538 C5.07,5.772 4.992,6.006 4.992,6.24 C4.992,6.552 5.07,6.786 5.148,6.942 C5.226,7.176 5.382,7.332 5.538,7.41 C5.694,7.566 5.928,7.644 6.162,7.722 C6.396,7.8 6.708,7.8 7.02,7.8 C7.332,7.8 7.644,7.8 7.956,7.722 C8.268,7.644 8.658,7.566 8.736,7.566 C8.814,7.566 8.97,7.488 8.97,7.488 C9.048,7.488 9.048,7.41 9.048,7.41 L9.048,4.524 C9.048,3.9 8.892,3.432 8.58,3.12 C8.268,2.808 7.722,2.652 7.098,2.652 C6.864,2.652 6.474,2.652 6.24,2.73 C6.24,2.73 5.538,2.886 5.226,3.12 C5.226,3.12 5.148,3.12 5.226,3.276 L5.46,3.9 C5.46,3.978 5.538,3.978 5.538,3.978 L5.616,3.978 C6.24,3.666 7.02,3.666 7.02,3.666 C7.332,3.666 7.644,3.744 7.8,3.9 C7.956,4.056 8.034,4.212 8.034,4.68 L8.034,4.68 C7.722,4.602 7.488,4.602 7.488,4.602 Z M6.24,6.786 C6.084,6.708 6.084,6.63 6.084,6.63 C6.006,6.552 6.006,6.396 6.006,6.24 C6.006,5.928 6.084,5.772 6.318,5.616 C6.318,5.616 6.552,5.382 7.254,5.382 C7.722,5.382 8.112,5.46 8.112,5.46 L8.112,6.864 L8.112,6.864 C8.112,6.864 7.722,6.942 7.254,6.942 C6.552,7.02 6.24,6.786 6.24,6.786 Z" id="Shape"></path>
                        <path d="M33.072,2.964 C33.072,2.886 33.072,2.886 32.994,2.886 C32.916,2.886 32.682,2.808 32.448,2.808 C32.058,2.808 31.824,2.886 31.668,2.964 C31.434,3.042 31.278,3.198 31.122,3.354 L31.122,2.964 C31.122,2.886 31.122,2.886 31.044,2.886 L30.264,2.886 C30.186,2.886 30.186,2.964 30.186,2.964 L30.186,7.722 C30.186,7.8 30.264,7.8 30.264,7.8 L31.122,7.8 C31.2,7.8 31.2,7.722 31.2,7.722 L31.2,5.382 C31.2,5.07 31.2,4.758 31.278,4.524 C31.356,4.29 31.434,4.134 31.59,4.056 C31.668,3.978 31.824,3.9 31.98,3.822 C32.136,3.744 32.292,3.744 32.37,3.744 C32.526,3.744 32.682,3.822 32.682,3.822 C32.76,3.822 32.76,3.822 32.76,3.744 C32.838,3.51 32.994,3.042 33.072,2.964 Z" id="Shape"></path>
                        <path d="M25.194,0.78 C25.116,0.78 25.038,0.702 24.882,0.702 L24.414,0.702 C23.868,0.702 23.4,0.858 23.088,1.17 C22.776,1.482 22.542,1.95 22.464,2.574 L22.464,2.808 L21.762,2.808 C21.762,2.808 21.684,2.808 21.684,2.886 L21.528,3.51 C21.528,3.588 21.528,3.588 21.606,3.588 L22.308,3.588 L21.606,7.566 C21.528,7.878 21.45,8.112 21.45,8.346 C21.372,8.58 21.294,8.658 21.216,8.814 C21.138,8.892 21.06,8.97 20.904,9.048 C20.826,9.048 20.67,9.126 20.514,9.126 L20.28,9.126 C20.202,9.126 20.202,9.126 20.124,9.048 C20.124,9.048 20.046,9.048 20.046,9.126 C20.046,9.204 19.812,9.672 19.812,9.75 C19.812,9.828 19.812,9.828 19.89,9.906 C19.968,9.906 20.046,9.984 20.202,9.984 C20.358,10.062 20.514,10.062 20.67,10.062 C20.982,10.062 21.216,9.984 21.45,9.906 C21.684,9.828 21.84,9.672 21.996,9.516 C22.152,9.282 22.308,9.126 22.386,8.814 C22.464,8.502 22.62,8.19 22.698,7.722 L23.4,3.666 L24.414,3.666 C24.414,3.666 24.492,3.666 24.492,3.588 L24.648,2.964 C24.648,2.886 24.648,2.886 24.57,2.886 L23.556,2.886 C23.556,2.886 23.634,2.496 23.712,2.184 C23.79,2.028 23.868,1.95 23.946,1.872 C24.024,1.794 24.102,1.716 24.18,1.716 C24.258,1.716 24.414,1.638 24.492,1.638 L24.726,1.638 C24.804,1.638 24.882,1.638 24.882,1.716 C24.96,1.716 25.038,1.716 25.038,1.638 L25.272,0.936 C25.35,0.78 25.272,0.78 25.194,0.78 Z" id="Shape"></path>
                        <path d="M11.076,7.644 C11.076,7.722 11.076,7.722 10.998,7.722 L10.14,7.722 C10.062,7.722 10.062,7.644 10.062,7.644 L10.062,0.858 C10.062,0.78 10.062,0.78 10.14,0.78 L10.998,0.78 C11.076,0.78 11.076,0.858 11.076,0.858 L11.076,7.644 Z" id="Shape"></path>
                    </g>
                </g>
            </g>
        </g>
    </g>
</svg>