<?xml version="1.0" encoding="UTF-8"?>
<svg width="83px" height="60px" viewBox="0 0 83 60" version="1.1" xmlns="http://www.w3.org/2000/svg" xmlns:xlink="http://www.w3.org/1999/xlink">
    <!-- Generator: Sketch 42 (36781) - http://www.bohemiancoding.com/sketch -->
    <title>Salesforce</title>
    <desc>Created with Sketch.</desc>
    <defs></defs>
    <g id="Ready" stroke="none" stroke-width="1" fill="none" fill-rule="evenodd">
        <g id="home-1.1---alt-2" transform="translate(-552.000000, -3709.000000)">
            <g id="precursive-homepage/sales-force-link" transform="translate(152.000000, 3567.000000)">
                <g transform="translate(-141.000000, 36.000000)" id="Group-2">
                    <g transform="translate(0.000000, 82.000000)">
                        <g id="Group-3">
                            <g id="Salesforce" transform="translate(541.000000, 24.000000)">
                                <path d="M34.4465664,6.3198458 C37.1691473,3.41034337 40.8387128,1.71313361 44.9817706,1.71313361 C50.4269323,1.71313361 55.2802286,4.86509458 57.7660633,9.47180677 C60.0151518,8.50197263 62.3826134,7.89582628 64.9868212,7.89582628 C74.8117869,7.89582628 82.8611563,16.1394165 82.8611563,26.322675 C82.8611563,36.5059335 74.8117869,44.7495238 64.9868212,44.7495238 C63.8030904,44.7495238 62.6193596,44.6282945 61.4356288,44.385836 C59.1865402,48.5076311 54.9251093,51.2959043 50.071813,51.2959043 C48.0594707,51.2959043 46.0471283,50.8109872 44.3899052,49.9623823 C42.1408166,55.4176994 36.814028,59.2970359 30.6586278,59.2970359 C24.2664815,59.2970359 18.8213198,55.1752408 16.6906043,49.356236 C15.7436197,49.5986945 14.7966351,49.7199238 13.8496504,49.7199238 C6.15540018,49.7199238 0,43.2947726 0,35.4148701 C0,30.0807823 2.72258085,25.4740702 6.86563867,23.0494848 C6.0370271,20.9885872 5.56353478,18.8064604 5.56353478,16.5031043 C5.56353478,7.41090921 12.7842927,0.0159238605 21.6622737,0.0159238605 C26.8706893,-0.226534676 31.4872394,2.31927995 34.4465664,6.3198458 Z" id="Shape" fill="#FFFFFF"></path>
                                <g id="Group" transform="translate(12.519694, 21.657252)" fill="#00A1E0">
                                    <path d="M0.26459865,10.1048161 L0.26459865,10.3472746 C0.382971731,10.4685039 0.619717892,10.5897331 0.738090972,10.5897331 C1.56670254,11.0746502 2.3953141,11.1958795 3.22392566,11.1958795 C4.88114879,11.1958795 5.94650651,10.2260453 5.94650651,8.7712941 L5.94650651,8.7712941 C5.94650651,7.43777215 4.76277571,6.95285508 3.5790449,6.58916728 L3.46067182,6.58916728 C2.63206026,6.34670874 1.92182178,6.1042502 1.92182178,5.49810386 L1.92182178,5.49810386 C1.92182178,5.01318679 2.3953141,4.64949899 2.9871795,4.64949899 C3.69741798,4.64949899 4.64440263,4.89195752 5.11789495,5.25564533 C5.11789495,5.25564533 5.23626803,5.3768746 5.35464111,5.25564533 C5.35464111,5.13441606 5.70976035,4.40704045 5.70976035,4.28581118 C5.70976035,4.16458191 5.70976035,4.16458191 5.59138727,4.04335265 C4.99952187,3.67966484 4.05253723,3.31597704 3.10555258,3.31597704 L2.9871795,3.31597704 C1.44832946,3.31597704 0.382971731,4.28581118 0.382971731,5.61933313 L0.382971731,5.61933313 C0.382971731,7.07408435 1.56670254,7.55900142 2.75043334,7.92268922 L2.9871795,7.92268922 C3.81579106,8.16514776 4.52602955,8.4076063 4.52602955,9.01375264 L4.52602955,9.01375264 C4.52602955,9.49866971 4.05253723,9.98358678 3.34229874,9.98358678 C3.10555258,9.98358678 2.15856794,9.98358678 1.21158329,9.37744044 C1.09321021,9.25621117 0.974837133,9.25621117 0.974837133,9.25621117 C0.974837133,9.25621117 0.856464053,9.13498191 0.738090972,9.37744044 L0.26459865,10.1048161 Z" id="Shape"></path>
                                    <path d="M25.1229455,10.1048161 L25.1229455,10.3472746 C25.2413186,10.4685039 25.4780648,10.5897331 25.5964379,10.5897331 C26.4250494,11.0746502 27.253661,11.1958795 28.0822726,11.1958795 C29.7394957,11.1958795 30.8048534,10.2260453 30.8048534,8.7712941 L30.8048534,8.7712941 C30.8048534,7.43777215 29.6211226,6.95285508 28.4373918,6.58916728 L28.3190187,6.58916728 C27.4904072,6.34670874 26.7801687,6.1042502 26.7801687,5.49810386 L26.7801687,5.49810386 C26.7801687,5.01318679 27.253661,4.64949899 27.8455264,4.64949899 C28.5557649,4.64949899 29.5027495,4.89195752 29.9762418,5.25564533 C29.9762418,5.25564533 30.0946149,5.3768746 30.212988,5.25564533 C30.212988,5.13441606 30.5681072,4.40704045 30.5681072,4.28581118 C30.5681072,4.16458191 30.5681072,4.16458191 30.4497342,4.04335265 C29.8578688,3.67966484 28.9108841,3.31597704 27.9638995,3.31597704 L27.8455264,3.31597704 C26.3066764,3.31597704 25.2413186,4.28581118 25.2413186,5.61933313 L25.2413186,5.61933313 C25.2413186,7.07408435 26.4250494,7.55900142 27.6087802,7.92268922 L27.8455264,7.92268922 C28.674138,8.16514776 29.3843764,8.4076063 29.3843764,9.01375264 L29.3843764,9.01375264 C29.3843764,9.49866971 28.9108841,9.98358678 28.2006456,9.98358678 C27.9638995,9.98358678 27.0169148,9.98358678 26.0699302,9.37744044 C25.9515571,9.25621117 25.833184,9.25621117 25.833184,9.25621117 C25.833184,9.25621117 25.7148109,9.13498191 25.5964379,9.37744044 L25.1229455,10.1048161 Z" id="Shape"></path>
                                    <path d="M43.470773,5.61933313 C43.3523999,5.13441606 43.1156538,4.77072826 42.8789076,4.40704045 C42.6421615,4.04335265 42.1686691,3.80089411 41.8135499,3.55843557 C41.3400576,3.31597704 40.8665652,3.19474777 40.2746998,3.19474777 C39.6828344,3.19474777 39.2093421,3.31597704 38.7358498,3.55843557 C38.2623575,3.80089411 37.9072382,4.04335265 37.6704921,4.40704045 C37.4337459,4.77072826 37.1969998,5.13441606 37.0786267,5.61933313 C36.9602536,6.1042502 36.8418805,6.58916728 36.8418805,7.19531362 C36.8418805,7.80145996 36.9602536,8.28637703 37.0786267,8.7712941 C37.1969998,9.25621117 37.4337459,9.61989898 37.6704921,9.98358678 C37.9072382,10.3472746 38.3807306,10.5897331 38.7358498,10.8321917 C39.2093421,11.0746502 39.6828344,11.1958795 40.2746998,11.1958795 C40.8665652,11.1958795 41.3400576,11.0746502 41.8135499,10.8321917 C42.2870422,10.5897331 42.6421615,10.3472746 42.8789076,9.98358678 C43.1156538,9.61989898 43.3523999,9.25621117 43.470773,8.7712941 C43.5891461,8.28637703 43.7075192,7.80145996 43.7075192,7.19531362 C43.7075192,6.58916728 43.7075192,6.1042502 43.470773,5.61933313 M42.0502961,7.07408435 C42.0502961,7.92268922 41.931923,8.52883557 41.5768037,9.01375264 C41.2216845,9.49866971 40.8665652,9.74112825 40.1563268,9.74112825 C39.5644614,9.74112825 39.090969,9.49866971 38.7358498,9.01375264 C38.6174767,8.65006483 38.3807306,7.92268922 38.3807306,7.07408435 C38.3807306,6.22547947 38.4991036,5.61933313 38.8542229,5.13441606 C39.090969,4.64949899 39.5644614,4.40704045 40.2746998,4.40704045 C40.8665652,4.40704045 41.3400576,4.64949899 41.6951768,5.13441606 C41.931923,5.61933313 42.0502961,6.34670874 42.0502961,7.07408435" id="Shape"></path>
                                    <path d="M55.189708,9.61989898 C55.189708,9.49866971 54.9529618,9.49866971 54.9529618,9.49866971 C54.7162157,9.61989898 54.4794695,9.61989898 54.2427233,9.74112825 L53.4141118,9.74112825 C52.7038733,9.74112825 52.230381,9.49866971 51.7568887,9.13498191 C51.4017694,8.7712941 51.1650232,8.04391849 51.1650232,7.19531362 C51.1650232,6.34670874 51.4017694,5.7405624 51.7568887,5.25564533 C52.1120079,4.77072826 52.5855002,4.52826972 53.2957387,4.52826972 C53.8876041,4.52826972 54.3610964,4.64949899 54.8345887,4.77072826 C54.8345887,4.77072826 54.9529618,4.77072826 54.9529618,4.64949899 C55.0713349,4.28581118 55.189708,4.04335265 55.3080811,3.67966484 C55.3080811,3.55843557 55.3080811,3.55843557 55.189708,3.55843557 C54.9529618,3.43720631 54.5978426,3.31597704 54.2427233,3.31597704 C53.8876041,3.31597704 53.5324849,3.19474777 53.1773656,3.19474777 C52.5855002,3.19474777 51.9936348,3.31597704 51.6385156,3.55843557 C51.1650232,3.80089411 50.809904,4.04335265 50.4547848,4.40704045 C50.0996655,4.77072826 49.8629194,5.13441606 49.7445463,5.61933313 C49.6261732,6.1042502 49.5078001,6.58916728 49.5078001,7.19531362 C49.5078001,8.4076063 49.8629194,9.37744044 50.4547848,10.1048161 C51.0466502,10.8321917 51.9936348,11.1958795 53.2957387,11.1958795 C54.0059772,11.1958795 54.7162157,11.0746502 55.3080811,10.8321917 C55.3080811,10.8321917 55.4264541,10.8321917 55.3080811,10.7109624 L55.189708,9.61989898 Z" id="Shape"></path>
                                    <path d="M62.4104659,5.25564533 C62.2920928,4.77072826 61.9369736,4.28581118 61.8186005,4.16458191 C61.4634812,3.80089411 61.2267351,3.55843557 60.8716158,3.43720631 C60.5164966,3.31597704 60.0430043,3.19474777 59.4511389,3.19474777 C58.8592735,3.19474777 58.2674081,3.31597704 57.9122888,3.55843557 C57.4387965,3.80089411 57.0836773,4.04335265 56.8469311,4.40704045 C56.6101849,4.77072826 56.3734388,5.25564533 56.2550657,5.7405624 C56.1366926,6.22547947 56.0183195,6.71039654 56.0183195,7.31654288 C56.0183195,7.92268922 56.1366926,8.4076063 56.2550657,8.89252337 C56.3734388,9.37744044 56.6101849,9.74112825 56.9653042,10.1048161 C57.3204234,10.4685039 57.6755427,10.7109624 58.149035,10.9534209 C58.6225273,11.1958795 59.2143927,11.1958795 59.9246312,11.1958795 C61.3451082,11.1958795 62.0553467,10.8321917 62.2920928,10.7109624 C62.2920928,10.7109624 62.4104659,10.5897331 62.2920928,10.4685039 L61.9369736,9.61989898 C61.9369736,9.49866971 61.7002274,9.49866971 61.7002274,9.49866971 C61.3451082,9.61989898 60.8716158,9.86235751 59.687885,9.86235751 C58.9776466,9.86235751 58.3857812,9.61989898 58.0306619,9.25621117 C57.6755427,8.89252337 57.5571696,8.4076063 57.4387965,7.68023069 L62.2920928,7.68023069 C62.2920928,7.68023069 62.4104659,7.68023069 62.4104659,7.55900142 C62.528839,7.31654288 62.7655851,6.34670874 62.4104659,5.25564533 Z M57.6755427,6.34670874 C57.7939158,5.86179167 57.9122888,5.49810386 58.0306619,5.13441606 C58.2674081,4.64949899 58.7409004,4.40704045 59.4511389,4.40704045 C60.0430043,4.40704045 60.5164966,4.64949899 60.7532428,5.13441606 C60.9899889,5.49810386 60.9899889,5.86179167 61.108362,6.34670874 L57.6755427,6.34670874 Z" id="Shape"></path>
                                    <path d="M23.9392147,5.25564533 C23.8208417,4.77072826 23.4657224,4.28581118 23.3473493,4.16458191 C22.9922301,3.80089411 22.7554839,3.55843557 22.4003647,3.43720631 C22.0452455,3.31597704 21.5717531,3.19474777 20.9798877,3.19474777 C20.3880223,3.19474777 19.7961569,3.31597704 19.4410377,3.55843557 C18.9675454,3.80089411 18.6124261,4.04335265 18.37568,4.40704045 C18.1389338,4.77072826 17.9021876,5.25564533 17.7838146,5.7405624 C17.6654415,6.22547947 17.5470684,6.71039654 17.5470684,7.31654288 C17.5470684,7.92268922 17.6654415,8.4076063 17.7838146,8.89252337 C17.9021876,9.37744044 18.1389338,9.74112825 18.494053,10.1048161 C18.8491723,10.4685039 19.2042915,10.7109624 19.6777838,10.9534209 C20.1512762,11.1958795 20.7431416,11.1958795 21.4533801,11.1958795 C22.873857,11.1958795 23.5840955,10.8321917 23.8208417,10.7109624 C23.8208417,10.7109624 23.9392147,10.5897331 23.8208417,10.4685039 L23.4657224,9.61989898 C23.4657224,9.49866971 23.2289763,9.49866971 23.2289763,9.49866971 C22.873857,9.61989898 22.4003647,9.86235751 21.2166339,9.86235751 C20.5063954,9.86235751 19.91453,9.61989898 19.5594108,9.25621117 C19.2042915,8.89252337 19.0859184,8.4076063 18.9675454,7.68023069 L23.8208417,7.68023069 C23.8208417,7.68023069 23.9392147,7.68023069 23.9392147,7.55900142 C24.0575878,7.31654288 24.294334,6.34670874 23.9392147,5.25564533 Z M19.2042915,6.34670874 C19.3226646,5.86179167 19.4410377,5.49810386 19.5594108,5.13441606 C19.7961569,4.64949899 20.2696492,4.40704045 20.9798877,4.40704045 C21.5717531,4.40704045 22.0452455,4.64949899 22.2819916,5.13441606 C22.5187378,5.49810386 22.5187378,5.86179167 22.6371109,6.34670874 L19.2042915,6.34670874 Z" id="Shape"></path>
                                    <path d="M10.6814297,6.1042502 L9.97119125,6.1042502 C9.61607201,6.1042502 9.14257968,6.1042502 8.78746044,6.22547947 C8.4323412,6.34670874 8.07722196,6.46793801 7.8404758,6.71039654 C7.60372964,6.95285508 7.36698348,7.19531362 7.13023732,7.55900142 C7.01186424,7.92268922 6.89349116,8.28637703 6.89349116,8.65006483 C6.89349116,9.13498191 7.01186424,9.49866971 7.13023732,9.74112825 C7.2486104,10.1048161 7.48535656,10.3472746 7.72210272,10.4685039 C7.95884888,10.7109624 8.31396812,10.8321917 8.66908736,10.9534209 C9.0242066,11.0746502 9.49769893,11.0746502 9.97119125,11.0746502 C10.4446836,11.0746502 10.9181759,11.0746502 11.3916682,10.9534209 C11.8651605,10.8321917 12.4570259,10.7109624 12.575399,10.7109624 C12.6937721,10.7109624 12.9305183,10.5897331 12.9305183,10.5897331 C13.0488913,10.5897331 13.0488913,10.4685039 13.0488913,10.4685039 L13.0488913,5.98302094 C13.0488913,5.01318679 12.8121452,4.28581118 12.3386529,3.80089411 C11.8651605,3.31597704 11.036549,3.0735185 10.0895643,3.0735185 C9.73444509,3.0735185 9.14257968,3.0735185 8.78746044,3.19474777 C8.78746044,3.19474777 7.72210272,3.43720631 7.2486104,3.80089411 C7.2486104,3.80089411 7.13023732,3.80089411 7.2486104,4.04335265 L7.60372964,5.01318679 C7.60372964,5.13441606 7.72210272,5.13441606 7.72210272,5.13441606 L7.8404758,5.13441606 C8.78746044,4.64949899 9.97119125,4.64949899 9.97119125,4.64949899 C10.4446836,4.64949899 10.9181759,4.77072826 11.1549221,5.01318679 C11.3916682,5.25564533 11.5100413,5.49810386 11.5100413,6.22547947 L11.5100413,6.22547947 C11.036549,6.1042502 10.6814297,6.1042502 10.6814297,6.1042502 Z M8.78746044,9.49866971 C8.55071428,9.37744044 8.55071428,9.25621117 8.55071428,9.25621117 C8.4323412,9.13498191 8.4323412,8.89252337 8.4323412,8.65006483 C8.4323412,8.16514776 8.55071428,7.92268922 8.90583352,7.68023069 C8.90583352,7.68023069 9.26095277,7.31654288 10.3263105,7.31654288 C11.036549,7.31654288 11.6284144,7.43777215 11.6284144,7.43777215 L11.6284144,9.61989898 L11.6284144,9.61989898 C11.6284144,9.61989898 11.036549,9.74112825 10.3263105,9.74112825 C9.26095277,9.86235751 8.78746044,9.49866971 8.78746044,9.49866971 Z" id="Shape"></path>
                                    <path d="M49.5078001,3.55843557 C49.5078001,3.43720631 49.5078001,3.43720631 49.389427,3.43720631 C49.271054,3.43720631 48.9159347,3.31597704 48.5608155,3.31597704 C47.9689501,3.31597704 47.6138308,3.43720631 47.3770847,3.55843557 C47.0219654,3.67966484 46.7852193,3.92212338 46.5484731,4.16458191 L46.5484731,3.55843557 C46.5484731,3.43720631 46.5484731,3.43720631 46.4301,3.43720631 L45.2463692,3.43720631 C45.1279961,3.43720631 45.1279961,3.55843557 45.1279961,3.55843557 L45.1279961,10.9534209 C45.1279961,11.0746502 45.2463692,11.0746502 45.2463692,11.0746502 L46.5484731,11.0746502 C46.6668462,11.0746502 46.6668462,10.9534209 46.6668462,10.9534209 L46.6668462,7.31654288 C46.6668462,6.83162581 46.6668462,6.34670874 46.7852193,5.98302094 C46.9035924,5.61933313 47.0219654,5.3768746 47.2587116,5.25564533 C47.3770847,5.13441606 47.6138308,5.01318679 47.850577,4.89195752 C48.0873232,4.77072826 48.3240693,4.77072826 48.4424424,4.77072826 C48.6791886,4.77072826 48.9159347,4.89195752 48.9159347,4.89195752 C49.0343078,4.89195752 49.0343078,4.89195752 49.0343078,4.77072826 C49.1526809,4.40704045 49.389427,3.67966484 49.5078001,3.55843557 Z" id="Shape"></path>
                                    <path d="M37.552119,0.164016069 C37.4337459,0.164016069 37.3153728,0.0427868005 37.0786267,0.0427868005 L36.3683882,0.0427868005 C35.5397766,0.0427868005 34.8295381,0.285245337 34.3560458,0.770162409 C33.8825535,1.25507948 33.5274343,1.98245509 33.4090612,2.95228923 L33.4090612,3.31597704 L32.3437035,3.31597704 C32.3437035,3.31597704 32.2253304,3.31597704 32.2253304,3.43720631 L31.9885842,4.40704045 C31.9885842,4.52826972 31.9885842,4.52826972 32.1069573,4.52826972 L33.172315,4.52826972 L32.1069573,10.7109624 C31.9885842,11.1958795 31.8702111,11.5595673 31.8702111,11.9232551 C31.7518381,12.2869429 31.633465,12.4081721 31.5150919,12.6506307 C31.3967188,12.7718599 31.2783457,12.8930892 31.0415996,13.0143185 C30.9232265,13.0143185 30.6864803,13.1355478 30.4497342,13.1355478 L30.0946149,13.1355478 C29.9762418,13.1355478 29.9762418,13.1355478 29.8578688,13.0143185 C29.8578688,13.0143185 29.7394957,13.0143185 29.7394957,13.1355478 C29.7394957,13.256777 29.3843764,13.9841526 29.3843764,14.1053819 C29.3843764,14.2266112 29.3843764,14.2266112 29.5027495,14.3478404 C29.6211226,14.3478404 29.7394957,14.4690697 29.9762418,14.4690697 C30.212988,14.590299 30.4497342,14.590299 30.6864803,14.590299 C31.1599727,14.590299 31.5150919,14.4690697 31.8702111,14.3478404 C32.2253304,14.2266112 32.4620765,13.9841526 32.6988227,13.7416941 C32.9355689,13.3780063 33.172315,13.1355478 33.2906881,12.6506307 C33.4090612,12.1657136 33.6458073,11.6807965 33.7641804,10.9534209 L34.8295381,4.64949899 L36.3683882,4.64949899 C36.3683882,4.64949899 36.4867613,4.64949899 36.4867613,4.52826972 L36.7235074,3.55843557 C36.7235074,3.43720631 36.7235074,3.43720631 36.6051344,3.43720631 L35.0662843,3.43720631 C35.0662843,3.43720631 35.1846574,2.83105997 35.3030305,2.34614289 C35.4214035,2.10368436 35.5397766,1.98245509 35.6581497,1.86122582 C35.7765228,1.73999655 35.8948959,1.61876729 36.0132689,1.61876729 C36.131642,1.61876729 36.3683882,1.49753802 36.4867613,1.49753802 L36.8418805,1.49753802 C36.9602536,1.49753802 37.0786267,1.49753802 37.0786267,1.61876729 C37.1969998,1.61876729 37.3153728,1.61876729 37.3153728,1.49753802 L37.6704921,0.406474605 C37.7888652,0.164016069 37.6704921,0.164016069 37.552119,0.164016069 Z" id="Shape"></path>
                                    <path d="M16.1265914,10.8321917 C16.1265914,10.9534209 16.1265914,10.9534209 16.0082184,10.9534209 L14.7061145,10.9534209 C14.5877414,10.9534209 14.5877414,10.8321917 14.5877414,10.8321917 L14.5877414,0.285245337 C14.5877414,0.164016069 14.5877414,0.164016069 14.7061145,0.164016069 L16.0082184,0.164016069 C16.1265914,0.164016069 16.1265914,0.285245337 16.1265914,0.285245337 L16.1265914,10.8321917 Z" id="Shape"></path>
                                </g>
                            </g>
                        </g>
                    </g>
                </g>
            </g>
        </g>
    </g>
</svg>