<?xml version="1.0" encoding="UTF-8"?>
<svg width="240px" height="240px" viewBox="0 0 240 240" version="1.1" xmlns="http://www.w3.org/2000/svg" xmlns:xlink="http://www.w3.org/1999/xlink">
    <!-- Generator: Sketch 42 (36781) - http://www.bohemiancoding.com/sketch -->
    <title>done</title>
    <desc>Created with Sketch.</desc>
    <defs></defs>
    <g id="Ready" stroke="none" stroke-width="1" fill="none" fill-rule="evenodd">
        <g id="Contact-Success" transform="translate(-600.000000, -302.000000)" fill="#00A1E0">
            <g id="done" transform="translate(600.000000, 302.000000)">
                <path d="M103.182433,169.863943 L63.5410263,129.982285 C62.0995206,128.54078 62.0995206,126.13827 63.5410263,124.696764 L68.8265472,119.411244 C70.2680529,117.969738 72.6705624,117.969738 74.1120682,119.411244 L103.903186,149.442613 C104.86419,150.403616 106.545947,150.403616 107.50695,149.442613 L165.887932,90.5811293 C167.329438,89.1396236 169.731947,89.1396236 171.173453,90.5811293 L176.458974,95.8666502 C177.900479,97.3081559 177.900479,99.7106655 176.458974,101.152171 L108.467954,169.863943 C107.026449,171.5457 104.623939,171.5457 103.182433,169.863943" id="check"></path>
                <ellipse id="Oval" opacity="0.1" cx="120" cy="120" rx="120" ry="120"></ellipse>
            </g>
        </g>
    </g>
</svg>